<svg width="26" height="31" viewBox="0 0 26 31" fill="none" xmlns="http://www.w3.org/2000/svg">
<g id="iPhone 17 &#38; 17 Pro">
<g id="Group 1321322889">
<path id="Vector" d="M12.9579 0C13.452 0.172083 13.9103 0.599515 13.9167 1.18396L13.9333 2.63438C18.1569 3.25372 21.3948 6.82068 21.5121 11.1069L21.5272 15.0212C21.5367 17.5326 22.6707 19.834 24.57 21.4533C25.2908 22.0679 25.5105 23.0702 25.1544 23.9521C24.8348 24.7451 24.0395 25.3279 23.0958 25.3279H2.22614C1.28008 25.3279 0.483901 24.7451 0.165904 23.9513C-0.178262 23.0909 0.0160254 22.0869 0.721011 21.4842C2.64802 19.8395 3.78758 17.5097 3.7971 14.9617L3.81216 11.0474C3.95253 6.7834 7.18959 3.25451 11.3878 2.63438L11.4044 1.18396C11.4108 0.600308 11.8691 0.172876 12.3767 0H12.9571H12.9579Z" fill="#FFE600"/>
<path id="Vector_2" d="M17.3077 26.5948C16.8137 29.0048 14.5417 30.6574 12.1 30.3593C10.0612 30.1103 8.43634 28.6004 8.00732 26.5933L17.3069 26.5948H17.3077Z" fill="#FFE600"/>
</g>
</g>
</svg>
