<svg width="293" height="319" viewBox="0 0 293 319" fill="none" xmlns="http://www.w3.org/2000/svg">
<path d="M39.8207 29.842L0 122.355C0 122.355 27.5634 139.346 62.0954 148.401H71.3351V29.842H39.8207Z" fill="url(#paint0_linear_25_2077)"/>
<path d="M252.737 29.842L292.558 122.355C292.558 122.355 264.994 139.346 230.462 148.401H221.223V29.842H252.737Z" fill="url(#paint1_linear_25_2077)"/>
<path d="M288.42 112.709C284.283 114.856 259.924 129.046 229.809 137.727C229 138.039 222.032 138.319 221.223 138.599V148.37H230.462C264.994 139.314 292.558 122.324 292.558 122.324L288.42 112.709Z" fill="url(#paint2_linear_25_2077)"/>
<path d="M4.13763 112.709C8.27525 114.856 32.6343 129.046 62.7487 137.727C63.5576 138.039 70.5262 138.319 71.3351 138.599V148.37H62.0954C27.5634 139.314 0 122.324 0 122.324L4.13763 112.709Z" fill="url(#paint3_linear_25_2077)"/>
<path d="M230.462 115.914C231.987 94.007 252.737 29.8109 252.737 29.8109C252.737 29.8109 209.308 16.2124 199.508 12.4471C189.677 8.68187 180.251 0 146.279 0C112.307 0 102.849 8.68187 93.0498 12.4471C83.2191 16.2124 39.8207 29.8109 39.8207 29.8109C39.8207 29.8109 60.571 94.007 62.0954 115.914C62.0954 128.983 48.6248 301.812 48.6248 301.812C48.6248 301.812 91.1521 318.429 146.279 318.429C201.406 318.429 243.933 301.812 243.933 301.812C243.933 301.812 230.462 128.952 230.462 115.914Z" fill="url(#paint4_linear_25_2077)"/>
<path d="M226.76 268.671C225.08 229.183 222.747 175.1 220.974 148.277L220.694 144.2C219.605 128.299 218.858 117.812 224.583 89.4016C229.965 62.578 224.085 46.8013 206.01 39.7686C192.011 34.323 162.705 23.1517 162.705 23.1517L130.444 23.0583L129.884 23.1517C129.884 23.1517 100.578 34.2919 86.5789 39.7686C68.504 46.8013 62.5932 62.578 68.0063 89.4016C73.7305 117.812 72.9839 128.299 71.895 144.2L71.615 148.277C69.8418 175.069 67.5397 229.152 65.8286 268.671C65.1753 284.168 64.5842 297.58 64.1487 306.853C65.1442 307.133 66.1397 307.413 67.2285 307.724C67.6641 298.42 68.2552 284.728 68.9396 268.827C70.6196 229.338 72.9217 175.287 74.695 148.525L74.975 144.449C76.0949 128.299 76.8415 117.657 71.0551 88.8103C64.4909 56.23 76.5304 47.0502 87.73 42.6937C100.952 37.5593 127.8 27.3215 130.755 26.2013H161.896C164.852 27.3215 191.699 37.5593 204.921 42.6937C216.121 47.0502 228.129 56.23 221.596 88.8103C215.81 117.625 216.556 128.299 217.676 144.449L217.956 148.525C219.73 175.287 222.032 229.338 223.712 268.827C224.396 284.728 224.987 298.42 225.423 307.724C226.48 307.444 227.507 307.133 228.502 306.853C228.067 297.611 227.507 284.168 226.823 268.671H226.76Z" fill="#499B2C"/>
<path d="M146.279 0C117.627 0 106.427 6.16133 97.7474 10.3622C105.027 30.9622 124.409 44.7474 146.279 44.7474C168.149 44.7474 187.531 30.9622 194.81 10.3622C186.131 6.16133 174.931 0 146.279 0Z" fill="#499B2C"/>
<path d="M146.279 0C123.351 0 111.622 3.95196 103.378 7.6861C109.414 25.61 126.337 38.5239 146.279 38.5239C166.22 38.5239 183.144 25.61 189.18 7.6861C180.935 3.95196 169.207 0 146.279 0Z" fill="url(#paint5_linear_25_2077)"/>
<defs>
<linearGradient id="paint0_linear_25_2077" x1="57.1801" y1="88.7481" x2="1.18069" y2="101.936" gradientUnits="userSpaceOnUse">
<stop stop-color="#FF8800"/>
<stop offset="0.41" stop-color="#FFA400"/>
<stop offset="1" stop-color="#FFD500"/>
</linearGradient>
<linearGradient id="paint1_linear_25_2077" x1="235.347" y1="88.7481" x2="291.346" y2="101.967" gradientUnits="userSpaceOnUse">
<stop stop-color="#FF8800"/>
<stop offset="0.41" stop-color="#FFA400"/>
<stop offset="1" stop-color="#FFD500"/>
</linearGradient>
<linearGradient id="paint2_linear_25_2077" x1="240.978" y1="127.303" x2="284.315" y2="137.536" gradientUnits="userSpaceOnUse">
<stop stop-color="#17661E"/>
<stop offset="0.57" stop-color="#328225"/>
<stop offset="1" stop-color="#499B2C"/>
</linearGradient>
<linearGradient id="paint3_linear_25_2077" x1="51.5803" y1="127.303" x2="8.24297" y2="137.536" gradientUnits="userSpaceOnUse">
<stop stop-color="#17661E"/>
<stop offset="0.57" stop-color="#328225"/>
<stop offset="1" stop-color="#499B2C"/>
</linearGradient>
<linearGradient id="paint4_linear_25_2077" x1="34.1898" y1="159.23" x2="258.306" y2="159.23" gradientUnits="userSpaceOnUse">
<stop stop-color="#FF8800"/>
<stop offset="0.06" stop-color="#FF9300"/>
<stop offset="0.26" stop-color="#FFB700"/>
<stop offset="0.42" stop-color="#FFCD00"/>
<stop offset="0.53" stop-color="#FFD500"/>
<stop offset="0.63" stop-color="#FFC900"/>
<stop offset="0.82" stop-color="#FFAB00"/>
<stop offset="1" stop-color="#FF8800"/>
</linearGradient>
<linearGradient id="paint5_linear_25_2077" x1="146.279" y1="39.4263" x2="146.279" y2="-6.22357" gradientUnits="userSpaceOnUse">
<stop stop-color="#17661E"/>
<stop offset="0.57" stop-color="#328225"/>
<stop offset="1" stop-color="#499B2C"/>
</linearGradient>
</defs>
</svg>
