<svg width="324" height="391" viewBox="0 0 324 391" fill="none" xmlns="http://www.w3.org/2000/svg">
<path d="M323.86 142.899C323.484 143.335 323.108 143.751 322.712 144.186C322.336 144.602 321.92 145.018 321.504 145.434C321.088 145.85 320.692 146.246 320.256 146.642C320.256 146.642 320.25 146.649 320.236 146.662C319.86 147.018 319.464 147.355 319.048 147.711C319.009 147.731 318.969 147.771 318.91 147.81C318.454 148.187 317.999 148.583 317.523 148.939C317.108 149.276 316.711 149.593 316.276 149.91C316.216 149.969 316.137 150.009 316.078 150.048C315.583 150.424 315.088 150.781 314.592 151.118C314.078 151.474 313.563 151.811 313.048 152.167C310.236 154.029 307.246 155.732 304.156 157.237C303.74 157.435 303.344 157.653 302.928 157.831C302.513 158.029 302.117 158.227 301.701 158.405C296.037 161.039 290.175 163.138 284.769 164.762C283.858 165.039 282.947 165.297 282.076 165.554C281.62 165.673 281.145 165.812 280.69 165.93C279.165 166.346 277.679 166.703 276.293 167.039C275.838 167.138 275.362 167.257 274.927 167.336C274.491 167.435 274.075 167.515 273.659 167.614C272.174 167.911 270.808 168.188 269.58 168.386C269.243 168.445 268.926 168.485 268.61 168.544C267.818 168.643 267.085 168.742 266.431 168.822C266.134 168.861 265.857 168.881 265.58 168.901C265.382 168.901 265.184 168.921 265.005 168.94C264.867 168.94 264.728 168.94 264.59 168.94C263.956 168.96 263.481 168.94 263.203 168.861C259.263 167.851 250.589 153.336 250.589 153.336C243.163 231.36 260.847 382.26 260.847 382.26C259.758 383.349 258.272 384.319 256.451 385.131C250.371 387.923 240.588 389.27 229.38 389.824C224.369 390.082 219.102 390.161 213.735 390.161C201.992 390.161 189.872 389.626 179.496 389.25C176.585 389.131 173.812 389.032 171.238 388.953C167.792 388.854 164.643 388.775 161.97 388.775C157.811 388.775 152.623 388.953 146.781 389.151C142.127 389.329 137.057 389.527 131.79 389.706C122.799 390.003 113.234 390.24 104.145 390.122C101.333 390.082 98.5404 390.003 95.8472 389.884C93.9065 389.785 92.0054 389.686 90.1637 389.547C90.0647 389.547 89.9656 389.547 89.8666 389.527C82.7771 389.013 76.4599 388.102 71.5487 386.636C67.8456 385.507 64.9345 384.082 63.1126 382.26C63.1126 382.26 72.7963 299.562 74.8163 224.944C75.5292 198.764 75.2915 173.594 73.3706 153.336C73.3706 153.336 64.6969 167.851 60.756 168.861C60.4788 168.94 60.0035 168.96 59.3698 168.94C59.2312 168.94 59.1124 168.94 58.9539 168.94C58.7757 168.94 58.5777 168.921 58.3797 168.901C58.1222 168.901 57.845 168.861 57.5281 168.822C56.8746 168.742 56.1617 168.643 55.3498 168.544C55.0527 168.485 54.7161 168.445 54.3794 168.386C53.1516 168.188 51.7654 167.93 50.3 167.614C49.8841 167.515 49.4683 167.435 49.0326 167.336C48.5969 167.237 48.1414 167.138 47.6662 167.039C46.2601 166.703 44.7947 166.346 43.2699 165.93C42.8144 165.812 42.3391 165.673 41.8837 165.554C40.9925 165.297 40.1014 165.039 39.1904 164.762C33.804 163.138 27.9422 161.039 22.2588 158.405C21.8429 158.227 21.4468 158.029 21.031 157.831C20.6151 157.653 20.219 157.435 19.8032 157.237C16.7139 155.712 13.7038 154.029 10.8918 152.167C10.4561 151.89 10.0402 151.593 9.60456 151.316C8.91145 150.821 8.19853 150.345 7.52523 149.811C7.14897 149.533 6.77271 149.256 6.39645 148.959C5.56472 148.306 4.75279 147.632 3.98047 146.919C3.76263 146.721 3.52499 146.503 3.30716 146.305C2.97051 146.008 2.65366 145.692 2.33681 145.375C1.96055 145.018 1.60409 144.642 1.26744 144.266C0.851575 143.81 0.435708 143.375 0.0594482 142.899C0.0594482 142.899 31.586 75.3508 36.7546 53.508C37.0913 52.102 37.6458 50.7157 38.4181 49.3889C38.5567 49.1117 38.7152 48.8542 38.8934 48.577C39.7053 47.27 40.7351 45.9828 41.9233 44.7352C42.1609 44.4778 42.3985 44.2401 42.656 44.0025C42.8738 43.7846 43.1114 43.547 43.3491 43.3292C53.112 34.2197 71.5883 26.8728 88.6784 18.8723C90.4013 18.0604 92.0846 17.2485 93.7678 16.4365C94.0649 16.2979 94.3619 16.1395 94.659 16.0009C96.1244 15.2681 97.5899 14.5552 99.0157 13.8027C100.659 12.9512 102.283 12.06 103.848 11.1887C103.848 11.1887 103.848 11.1887 103.867 11.1887C104.739 10.6936 105.61 10.1787 106.462 9.68366C111.492 6.67359 115.888 3.5051 119.314 0.0395508C119.314 0.0395508 119.452 0.118764 119.69 0.257386C119.789 0.316796 119.908 0.376202 120.027 0.455415C121.037 1.0099 123.037 2.05947 125.77 3.34667C125.988 3.44568 126.225 3.5645 126.463 3.66351C130.146 5.34678 135.057 7.32709 140.622 8.97075C141.038 9.08957 141.474 9.2282 141.909 9.34701C142.167 9.40642 142.424 9.48564 142.682 9.56485C143.533 9.80249 144.404 10.0203 145.276 10.2184C145.711 10.3174 146.147 10.4362 146.603 10.5154C147.712 10.7728 148.84 10.9907 149.969 11.2085C150.603 11.3075 151.237 11.4263 151.89 11.5254C151.949 11.5254 151.989 11.5254 152.048 11.5452C152.643 11.6442 153.256 11.7234 153.87 11.8026C154.524 11.8818 155.197 11.961 155.89 12.0204C156.267 12.06 156.643 12.0798 157.019 12.1195C157.514 12.1789 158.029 12.1987 158.544 12.2185C158.999 12.2383 159.475 12.2779 159.95 12.2779C160.643 12.2977 161.316 12.3175 162.009 12.3175C183.852 12.3175 204.685 0.059343 204.685 0.059343C208.091 3.50509 212.507 6.69339 217.518 9.68366C218.369 10.1787 219.221 10.6936 220.112 11.1887C220.112 11.1887 220.112 11.1887 220.132 11.2085C220.904 11.6442 221.716 12.0799 222.508 12.4957C223.32 12.9512 224.152 13.367 224.964 13.8027C226.389 14.5354 227.855 15.2681 229.32 16.0009C247.876 25.1499 269.719 33.1306 280.63 43.3292C280.868 43.547 281.105 43.7846 281.323 44.0025C281.501 44.1807 281.68 44.3391 281.858 44.5372C282.254 44.9332 282.63 45.3491 282.967 45.7452C283.185 45.9828 283.383 46.2402 283.581 46.4779C283.779 46.7155 283.957 46.973 284.155 47.2106C284.927 48.2602 285.601 49.3295 286.116 50.4187C286.215 50.6365 286.314 50.8346 286.413 51.0524C286.749 51.8445 287.027 52.6763 287.225 53.4882C288.116 57.2508 289.779 62.3402 291.938 68.2217C292.532 69.8258 293.146 71.4892 293.799 73.1923C294.235 74.3211 294.69 75.4895 295.146 76.6579C295.601 77.8262 296.077 79.0342 296.552 80.2224C298.473 85.0544 300.552 90.0844 302.691 95.1342C303.226 96.3818 303.76 97.6492 304.295 98.8968C305.899 102.659 307.503 106.402 309.107 110.006C310.157 112.422 311.206 114.759 312.196 117.017C312.949 118.72 313.682 120.363 314.395 121.948C315.82 125.136 317.167 128.067 318.335 130.701C318.712 131.572 319.108 132.404 319.464 133.196C322.197 139.156 323.92 142.86 323.92 142.86L323.86 142.899Z" fill="#071A52"/>
<mask id="mask0_29_312" style="mask-type:luminance" maskUnits="userSpaceOnUse" x="0" y="0" width="324" height="391">
<path d="M323.86 142.899C307.642 162.049 267.105 169.931 263.164 168.921C259.223 167.911 250.549 153.395 250.549 153.395C243.123 231.419 260.807 382.319 260.807 382.319C248.41 394.696 186.704 388.834 161.93 388.834C145.751 388.834 113.789 391.33 90.124 389.607C77.5689 388.696 67.3504 386.597 63.073 382.299C63.073 382.299 80.7571 231.4 73.3112 153.375C73.3112 153.375 64.6374 167.891 60.6966 168.901C56.7558 169.911 16.2188 162.029 0 142.88C0 142.88 31.5266 75.3311 36.6952 53.4883C41.0123 35.2892 81.272 24.6945 106.402 9.64413C111.432 6.63405 115.828 3.46555 119.254 0C119.254 0 121.076 1.08918 124.225 2.59422C131.691 6.19839 146.543 12.2779 161.91 12.2779C183.753 12.2779 204.586 0 204.586 0C207.992 3.44574 212.408 6.63405 217.419 9.64413C242.529 24.6945 282.808 35.2892 287.126 53.4883C292.314 75.3311 323.841 142.88 323.841 142.88L323.86 142.899Z" fill="white"/>
</mask>
<g mask="url(#mask0_29_312)">
<g style="mix-blend-mode:multiply">
<path d="M62.5779 388.597L95.6887 388.399L161.93 388.24L228.488 388.399L261.778 388.597L295.067 388.934L261.778 389.27L228.488 389.468L161.93 389.627L95.6887 389.468L62.5779 389.27C62.261 389.27 29.1304 388.934 28.8135 388.934C29.1304 388.934 62.261 388.597 62.5779 388.597Z" fill="url(#paint0_linear_29_312)"/>
<path d="M63.0135 385.864L95.9857 385.666L161.93 385.507L228.31 385.666L261.5 385.864L294.69 386.2L261.5 386.537L228.31 386.735L161.93 386.894L95.9857 386.735L63.0135 386.537C62.5779 386.537 29.6057 386.2 29.17 386.2C29.6057 386.2 62.5779 385.864 63.0135 385.864Z" fill="url(#paint1_linear_29_312)"/>
<path d="M63.4294 383.131L96.263 382.953L161.93 382.794L228.132 382.953L261.243 383.151L294.354 383.488L261.243 383.824L228.132 384.022L161.93 384.181L96.263 384.022L63.4294 383.844C62.8947 383.844 30.0611 383.507 29.5264 383.507C30.0611 383.507 62.8947 383.171 63.4294 383.171V383.131Z" fill="url(#paint2_linear_29_312)"/>
<path d="M63.865 380.398L96.56 380.22L161.93 380.062L227.954 380.22L260.965 380.418L293.977 380.755L260.965 381.091L227.954 381.289L161.93 381.448L96.56 381.289L63.865 381.111C63.2115 381.111 30.5363 380.774 29.8828 380.774C30.5363 380.774 63.2115 380.438 63.865 380.438V380.398Z" fill="url(#paint3_linear_29_312)"/>
<path d="M64.3008 377.666L96.8373 377.487L161.93 377.329L227.776 377.487L260.688 377.685L293.601 378.022L260.688 378.359L227.776 378.557L161.93 378.715L96.8373 378.557L64.3008 378.378C63.5482 378.378 31.0117 378.042 30.2394 378.042C30.9919 378.042 63.5284 377.705 64.3008 377.705V377.666Z" fill="url(#paint4_linear_29_312)"/>
<path d="M64.7364 374.933L97.1344 374.755L161.93 374.596L227.597 374.755L260.431 374.953L293.265 375.289L260.431 375.626L227.597 375.824L161.93 375.982L97.1344 375.824L64.7364 375.646C63.8651 375.646 31.4672 375.309 30.6157 375.289C31.487 375.289 63.8849 374.953 64.7364 374.933Z" fill="url(#paint5_linear_29_312)"/>
<path d="M65.1721 372.18L97.4314 372.002L161.95 371.843L227.419 372.002L260.154 372.2L292.888 372.536L260.154 372.873L227.419 373.071L161.95 373.23L97.4314 373.071L65.1721 372.893C64.2017 372.893 31.9425 372.556 30.9721 372.536C31.9425 372.536 64.2017 372.2 65.1721 372.18Z" fill="url(#paint6_linear_29_312)"/>
<path d="M65.6078 369.448L97.7087 369.269L161.93 369.111L227.221 369.269L259.876 369.467L292.532 369.804L259.876 370.141L227.221 370.339L161.93 370.497L97.7087 370.339L65.6078 370.16C64.5384 370.16 32.4178 369.824 31.3484 369.804C32.4178 369.784 64.5384 369.467 65.6078 369.448Z" fill="url(#paint7_linear_29_312)"/>
<path d="M66.0434 366.714L98.0057 366.536L161.93 366.378L227.043 366.536L259.599 366.734L292.156 367.071L259.599 367.407L227.043 367.605L161.93 367.764L98.0057 367.605L66.0434 367.427C64.8553 367.427 32.893 367.091 31.7048 367.071C32.893 367.051 64.8553 366.734 66.0434 366.714Z" fill="url(#paint8_linear_29_312)"/>
<path d="M66.4791 363.982L98.3027 363.803L161.95 363.645L226.884 363.803L259.362 364.002L291.819 364.338L259.362 364.675L226.884 364.873L161.95 365.031L98.3027 364.873L66.4791 364.695C65.1919 364.695 33.3683 364.358 32.0811 364.338C33.3683 364.318 65.1919 364.002 66.4791 363.982Z" fill="url(#paint9_linear_29_312)"/>
<path d="M66.9147 361.249L98.5799 361.071L161.93 360.912L226.686 361.071L259.064 361.269L291.443 361.605L259.064 361.942L226.686 362.14L161.93 362.298L98.5799 362.14L66.9147 361.962C65.5087 361.962 33.8435 361.645 32.4375 361.605C33.8435 361.585 65.5087 361.269 66.9147 361.249Z" fill="url(#paint10_linear_29_312)"/>
<path d="M67.3306 358.516L98.8572 358.338L161.93 358.179L226.508 358.338L258.787 358.536L291.066 358.873L258.787 359.209L226.508 359.407L161.93 359.566L98.8572 359.407L67.3306 359.229C65.8256 359.229 34.299 358.912 32.7742 358.873C34.2792 358.833 65.8058 358.536 67.3306 358.516Z" fill="url(#paint11_linear_29_312)"/>
<path d="M67.7663 355.763L99.1542 355.585L161.93 355.427L226.33 355.585L258.53 355.783L290.73 356.12L258.53 356.456L226.33 356.654L161.93 356.813L99.1542 356.654L67.7663 356.476C66.1424 356.476 34.7544 356.159 33.1504 356.12C34.7742 356.08 66.1622 355.783 67.7663 355.763Z" fill="url(#paint12_linear_29_312)"/>
<path d="M68.2019 353.031L99.4512 352.852L161.93 352.694L226.132 352.852L258.233 353.05L290.334 353.387L258.233 353.724L226.132 353.922L161.93 354.08L99.4512 353.922L68.2019 353.743C66.479 353.743 35.2297 353.427 33.5068 353.387C35.2297 353.347 66.479 353.05 68.2019 353.031Z" fill="url(#paint13_linear_29_312)"/>
<path d="M68.6376 350.297L99.7285 350.119L161.93 349.961L225.954 350.119L257.975 350.317L289.997 350.654L257.975 350.99L225.954 351.188L161.93 351.347L99.7285 351.188L68.6376 351.01C66.7959 351.01 35.705 350.693 33.8831 350.654C35.7248 350.614 66.8157 350.317 68.6376 350.297Z" fill="url(#paint14_linear_29_312)"/>
<path d="M69.0733 347.565L100.026 347.387L161.93 347.228L225.775 347.387L257.698 347.585L289.621 347.921L257.698 348.258L225.775 348.456L161.93 348.614L100.026 348.456L69.0733 348.278C67.1325 348.278 36.1803 347.961 34.2396 347.921C36.1803 347.882 67.1325 347.565 69.0733 347.565Z" fill="url(#paint15_linear_29_312)"/>
<path d="M69.5089 344.832L100.323 344.654L161.95 344.495L225.617 344.654L257.441 344.852L289.264 345.188L257.441 345.525L225.617 345.723L161.95 345.881L100.323 345.723L69.5089 345.545C67.4692 345.545 36.6555 345.228 34.596 345.188C36.6357 345.149 67.4494 344.832 69.5089 344.832Z" fill="url(#paint16_linear_29_312)"/>
<path d="M69.9446 342.099L100.6 341.921L161.93 341.762L225.419 341.921L257.163 342.119L288.908 342.456L257.163 342.792L225.419 342.99L161.93 343.149L100.6 342.99L69.9446 342.812C67.7861 342.812 37.1308 342.495 34.9723 342.456C37.1308 342.416 67.7861 342.099 69.9446 342.099Z" fill="url(#paint17_linear_29_312)"/>
<path d="M70.3802 339.366L100.897 339.188L161.95 339.029L225.26 339.188L256.906 339.386L288.551 339.722L256.906 340.059L225.26 340.257L161.95 340.416L100.897 340.257L70.3802 340.079C68.1227 340.079 37.606 339.762 35.3287 339.722C37.5862 339.683 68.1029 339.366 70.3802 339.366Z" fill="url(#paint18_linear_29_312)"/>
<path d="M70.816 336.614L101.194 336.435L161.95 336.277L225.082 336.435L256.649 336.634L288.215 336.97L256.649 337.307L225.082 337.505L161.95 337.663L101.194 337.505L70.816 337.327C68.4397 337.327 38.0617 337.01 35.7051 336.95C38.0815 336.911 68.4595 336.594 70.816 336.574V336.614Z" fill="url(#paint19_linear_29_312)"/>
<path d="M71.2319 333.881L101.451 333.703L161.91 333.544L224.845 333.703L256.312 333.901L287.779 334.238L256.312 334.574L224.845 334.772L161.91 334.931L101.451 334.772L71.2319 334.594C68.7565 334.594 38.5171 334.277 36.0417 334.218C38.5171 334.178 68.7565 333.861 71.2319 333.841V333.881Z" fill="url(#paint20_linear_29_312)"/>
<path d="M71.6675 331.148L101.748 330.989L161.93 330.831L224.686 330.989L256.074 331.187L287.462 331.524L256.074 331.861L224.686 332.059L161.93 332.217L101.748 332.059L71.6675 331.9C69.0733 331.881 38.9923 331.584 36.3981 331.524C38.9923 331.465 69.0733 331.168 71.6675 331.148Z" fill="url(#paint21_linear_29_312)"/>
<path d="M72.1032 328.415L102.046 328.257L161.93 328.099L224.508 328.257L255.797 328.455L287.086 328.792L255.797 329.128L224.508 329.326L161.93 329.485L102.046 329.326L72.1032 329.168C69.41 329.148 39.4676 328.851 36.7744 328.792C39.4676 328.732 69.41 328.435 72.1032 328.415Z" fill="url(#paint22_linear_29_312)"/>
<path d="M72.5388 325.682L102.323 325.524L161.93 325.365L224.33 325.524L255.52 325.722L286.71 326.059L255.52 326.395L224.33 326.593L161.93 326.752L102.323 326.593L72.5388 326.435C69.7268 326.415 39.9429 326.118 37.1309 326.059C39.9429 325.999 69.7268 325.702 72.5388 325.682Z" fill="url(#paint23_linear_29_312)"/>
<path d="M72.9745 322.949L102.62 322.791L161.93 322.632L224.152 322.791L255.262 322.989L286.373 323.325L255.262 323.662L224.152 323.86L161.93 324.019L102.62 323.86L72.9745 323.702C70.0635 323.682 40.4182 323.385 37.5071 323.325C40.4182 323.266 70.0635 322.969 72.9745 322.949Z" fill="url(#paint24_linear_29_312)"/>
<path d="M73.4102 320.217L102.917 320.058L161.93 319.9L223.973 320.058L254.985 320.256L285.997 320.593L254.985 320.93L223.973 321.128L161.93 321.286L102.917 321.128L73.4102 320.969C70.4001 320.949 40.8737 320.652 37.8636 320.593C40.8737 320.534 70.4001 320.237 73.4102 320.217Z" fill="url(#paint25_linear_29_312)"/>
<path d="M73.8458 317.464L103.214 317.306L161.95 317.147L223.795 317.306L254.728 317.504L285.66 317.841L254.728 318.177L223.795 318.375L161.95 318.534L103.214 318.375L73.8458 318.217C70.7169 318.197 41.3489 317.9 38.22 317.841C41.3489 317.781 70.7169 317.484 73.8458 317.464Z" fill="url(#paint26_linear_29_312)"/>
<path d="M74.2815 314.731L103.491 314.573L161.93 314.414L223.597 314.573L254.431 314.771L285.264 315.107L254.431 315.444L223.597 315.642L161.93 315.801L103.491 315.642L74.2815 315.484C71.0536 315.464 41.8242 315.167 38.5963 315.107C41.8242 315.048 71.0536 314.751 74.2815 314.731Z" fill="url(#paint27_linear_29_312)"/>
<path d="M74.7171 311.998L103.788 311.84L161.95 311.701L223.439 311.86L254.193 312.058L284.947 312.395L254.193 312.731L223.439 312.929L161.95 313.088L103.788 312.949L74.7171 312.791C71.3704 312.771 42.2994 312.474 38.9527 312.414C42.2994 312.355 71.3704 312.058 74.7171 312.038V311.998Z" fill="url(#paint28_linear_29_312)"/>
<path d="M75.133 309.266L104.065 309.107L161.93 308.969L223.241 309.127L253.896 309.325L284.551 309.662L253.896 309.998L223.241 310.196L161.93 310.355L104.065 310.216L75.133 310.058C71.6872 310.038 42.7549 309.741 39.3091 309.681C42.7549 309.622 71.6872 309.325 75.133 309.305V309.266Z" fill="url(#paint29_linear_29_312)"/>
<path d="M75.5688 306.533L104.343 306.374L161.93 306.236L223.062 306.394L253.619 306.592L284.175 306.929L253.619 307.266L223.062 307.464L161.93 307.622L104.343 307.483L75.5688 307.325C72.0042 307.305 43.2303 307.008 39.6657 306.949C43.2303 306.87 72.0042 306.592 75.5688 306.572V306.533Z" fill="url(#paint30_linear_29_312)"/>
<path d="M76.0043 303.8L104.64 303.641L161.93 303.503L222.884 303.661L253.361 303.859L283.838 304.196L253.361 304.532L222.884 304.73L161.93 304.889L104.64 304.75L76.0043 304.592C72.3408 304.572 43.7054 304.275 40.0419 304.216C43.7054 304.136 72.3408 303.859 76.0043 303.839V303.8Z" fill="url(#paint31_linear_29_312)"/>
<path d="M76.4401 301.067L104.937 300.909L161.93 300.77L222.706 300.928L253.084 301.126L283.462 301.463L253.084 301.8L222.706 301.998L161.93 302.156L104.937 302.018L76.4401 301.859C72.6577 301.839 44.161 301.542 40.3984 301.463C44.1808 301.384 72.6775 301.107 76.4401 301.067Z" fill="url(#paint32_linear_29_312)"/>
<path d="M76.8758 298.314L105.214 298.156L161.93 298.017L222.508 298.176L252.807 298.374L283.106 298.71L252.807 299.047L222.508 299.245L161.93 299.404L105.214 299.265L76.8758 299.107C72.9944 299.067 44.6363 298.79 40.7549 298.71C44.6363 298.631 72.9944 298.354 76.8758 298.314Z" fill="url(#paint33_linear_29_312)"/>
<path d="M77.3114 295.582L105.511 295.423L161.93 295.285L222.33 295.443L252.529 295.641L282.729 295.978L252.529 296.314L222.33 296.512L161.93 296.671L105.511 296.532L77.3114 296.374C73.331 296.334 45.1115 296.057 41.1311 295.978C45.1115 295.899 73.331 295.621 77.3114 295.582Z" fill="url(#paint34_linear_29_312)"/>
<path d="M77.7471 292.849L105.808 292.69L161.95 292.552L222.171 292.71L252.292 292.908L282.412 293.245L252.292 293.581L222.171 293.779L161.95 293.938L105.808 293.799L77.7471 293.641C73.6478 293.601 45.5868 293.324 41.4875 293.245C45.5868 293.165 73.6478 292.888 77.7471 292.849Z" fill="url(#paint35_linear_29_312)"/>
<path d="M78.1828 290.116L106.085 289.957L161.93 289.819L221.973 289.977L251.995 290.175L282.016 290.512L251.995 290.849L221.973 291.047L161.93 291.205L106.085 291.066L78.1828 290.908C73.9845 290.868 46.0621 290.591 41.8638 290.512C46.0621 290.433 73.9845 290.155 78.1828 290.116Z" fill="url(#paint36_linear_29_312)"/>
<path d="M78.6184 287.383L106.382 287.225L161.93 287.086L221.795 287.244L251.718 287.442L281.64 287.779L251.718 288.116L221.795 288.314L161.93 288.472L106.382 288.334L78.6184 288.175C74.3013 288.136 46.5374 287.858 42.2203 287.779C46.5374 287.7 74.3013 287.423 78.6184 287.383Z" fill="url(#paint37_linear_29_312)"/>
<path d="M79.0342 284.65L106.66 284.492L161.93 284.353L221.617 284.512L251.46 284.71L281.303 285.046L251.46 285.383L221.617 285.581L161.93 285.74L106.66 285.601L79.0342 285.442C74.6181 285.403 46.9928 285.126 42.5569 285.046C46.973 284.967 74.5983 284.69 79.0342 284.65Z" fill="url(#paint38_linear_29_312)"/>
<path d="M79.4699 281.917L106.957 281.759L161.93 281.62L221.439 281.779L251.183 281.977L280.927 282.313L251.183 282.65L221.439 282.848L161.93 283.006L106.957 282.868L79.4699 282.709C74.935 282.67 47.4483 282.412 42.9332 282.313C47.4681 282.214 74.9548 281.957 79.4699 281.917Z" fill="url(#paint39_linear_29_312)"/>
<path d="M79.9056 279.165L107.234 279.026L161.93 278.888L221.24 279.046L250.906 279.244L280.571 279.581L250.906 279.917L221.24 280.115L161.93 280.274L107.234 280.135L79.9056 279.997C75.2717 279.957 47.9235 279.7 43.2896 279.601C47.9235 279.502 75.2717 279.244 79.9056 279.205V279.165Z" fill="url(#paint40_linear_29_312)"/>
<path d="M80.3412 276.432L107.531 276.293L161.93 276.155L221.062 276.313L250.628 276.511L280.194 276.848L250.628 277.184L221.062 277.382L161.93 277.541L107.531 277.402L80.3412 277.264C75.5885 277.224 48.3988 276.966 43.6658 276.867C48.4186 276.768 75.6083 276.511 80.3412 276.471V276.432Z" fill="url(#paint41_linear_29_312)"/>
<path d="M80.7769 273.699L107.828 273.56L161.95 273.422L220.904 273.58L250.391 273.778L279.878 274.115L250.391 274.452L220.904 274.65L161.95 274.808L107.828 274.669L80.7769 274.531C75.9251 274.491 48.874 274.234 44.0223 274.135C48.874 274.036 75.9251 273.778 80.7769 273.739V273.699Z" fill="url(#paint42_linear_29_312)"/>
<path d="M81.2126 270.966L108.105 270.827L161.93 270.689L220.706 270.847L250.094 271.045L279.481 271.382L250.094 271.718L220.706 271.917L161.93 272.075L108.105 271.936L81.2126 271.798C76.2618 271.758 49.3493 271.501 44.3787 271.402C49.3295 271.303 76.242 271.045 81.2126 271.006V270.966Z" fill="url(#paint43_linear_29_312)"/>
<path d="M81.6482 268.234L108.402 268.095L161.93 267.956L220.528 268.115L249.816 268.313L279.105 268.649L249.816 268.986L220.528 269.184L161.93 269.343L108.402 269.204L81.6482 269.065C76.5786 269.026 49.8246 268.768 44.755 268.669C49.8246 268.57 76.5786 268.313 81.6482 268.273V268.234Z" fill="url(#paint44_linear_29_312)"/>
<path d="M82.084 265.501L108.699 265.362L161.95 265.224L220.369 265.382L249.579 265.58L278.788 265.917L249.579 266.253L220.369 266.451L161.95 266.61L108.699 266.471L82.084 266.333C76.9154 266.293 50.3 266.036 45.1116 265.937C50.2802 265.838 76.8956 265.58 82.084 265.54V265.501Z" fill="url(#paint45_linear_29_312)"/>
<path d="M82.5196 262.768L108.977 262.629L161.93 262.49L220.151 262.649L249.262 262.847L278.372 263.184L249.262 263.52L220.151 263.718L161.93 263.877L108.977 263.738L82.5196 263.599C77.2321 263.56 50.7554 263.302 45.4877 263.184C50.7752 263.085 77.2519 262.827 82.5196 262.768Z" fill="url(#paint46_linear_29_312)"/>
<path d="M82.9355 260.015L109.254 259.877L161.93 259.738L219.973 259.896L249.005 260.094L278.036 260.431L249.005 260.768L219.973 260.966L161.93 261.124L109.254 260.986L82.9355 260.847C77.5491 260.807 51.2109 260.55 45.8245 260.431C51.2109 260.332 77.5491 260.055 82.9355 260.015Z" fill="url(#paint47_linear_29_312)"/>
<path d="M83.3712 257.282L109.551 257.144L161.93 257.005L219.795 257.164L248.727 257.362L277.66 257.698L248.727 258.035L219.795 258.233L161.93 258.391L109.551 258.253L83.3712 258.114C77.8659 258.074 51.6862 257.817 46.1809 257.698C51.6862 257.579 77.8659 257.322 83.3712 257.282Z" fill="url(#paint48_linear_29_312)"/>
<path d="M83.8069 254.55L109.848 254.411L161.93 254.272L219.617 254.431L248.47 254.629L277.323 254.966L248.47 255.302L219.617 255.5L161.93 255.659L109.848 255.52L83.8069 255.381C78.2026 255.342 52.1615 255.084 46.5572 254.966C52.1615 254.847 78.2026 254.589 83.8069 254.55Z" fill="url(#paint49_linear_29_312)"/>
<path d="M84.2425 251.817L110.125 251.678L161.93 251.539L219.438 251.698L248.193 251.896L276.947 252.232L248.193 252.569L219.438 252.767L161.93 252.926L110.125 252.787L84.2425 252.648C78.5194 252.609 52.6367 252.351 46.9136 252.232C52.6367 252.114 78.5194 251.856 84.2425 251.817Z" fill="url(#paint50_linear_29_312)"/>
<path d="M84.6782 249.084L110.422 248.945L161.93 248.807L219.26 248.965L247.915 249.163L276.57 249.5L247.915 249.836L219.26 250.034L161.93 250.193L110.422 250.054L84.6782 249.916C78.856 249.876 53.112 249.619 47.2899 249.5C53.112 249.381 78.856 249.123 84.6782 249.084Z" fill="url(#paint51_linear_29_312)"/>
<path d="M85.1138 246.351L110.719 246.212L161.95 246.074L219.102 246.232L247.678 246.43L276.254 246.767L247.678 247.104L219.102 247.302L161.95 247.46L110.719 247.321L85.1138 247.183C79.1927 247.143 53.5872 246.886 47.6463 246.767C53.5674 246.648 79.1729 246.391 85.1138 246.351Z" fill="url(#paint52_linear_29_312)"/>
<path d="M85.5495 243.599L110.997 243.46L161.93 243.321L218.884 243.48L247.361 243.678L275.838 244.014L247.361 244.351L218.884 244.549L161.93 244.708L110.997 244.569L85.5495 244.43C79.5095 244.391 54.0427 244.133 48.0226 244.014C54.0625 243.896 79.5294 243.638 85.5495 243.599Z" fill="url(#paint53_linear_29_312)"/>
<path d="M85.9852 240.865L111.294 240.727L161.95 240.588L218.726 240.747L247.123 240.945L275.521 241.281L247.123 241.618L218.726 241.816L161.95 241.974L111.294 241.836L85.9852 241.697C79.8462 241.657 54.518 241.4 48.379 241.281C54.518 241.162 79.8462 240.905 85.9852 240.865Z" fill="url(#paint54_linear_29_312)"/>
<path d="M86.4208 238.133L111.591 237.994L161.95 237.855L218.547 238.014L246.846 238.212L275.145 238.549L246.846 238.885L218.547 239.083L161.95 239.242L111.591 239.103L86.4208 238.964C80.163 238.925 54.9933 238.667 48.7355 238.549C54.9933 238.43 80.163 238.172 86.4208 238.133Z" fill="url(#paint55_linear_29_312)"/>
<path d="M86.8367 235.4L111.848 235.261L161.91 235.123L218.329 235.281L246.529 235.479L274.749 235.816L246.529 236.152L218.329 236.35L161.91 236.509L111.848 236.37L86.8367 236.232C80.4799 236.192 55.4487 235.934 49.0919 235.816C55.4487 235.697 80.4799 235.439 86.8367 235.4Z" fill="url(#paint56_linear_29_312)"/>
<path d="M87.2723 232.667L112.145 232.528L161.93 232.39L218.171 232.548L246.291 232.746L274.412 233.083L246.291 233.42L218.171 233.618L161.93 233.776L112.145 233.637L87.2723 233.499C80.7967 233.439 55.924 233.202 49.4484 233.083C55.924 232.964 80.7967 232.707 87.2723 232.667Z" fill="url(#paint57_linear_29_312)"/>
<path d="M87.708 229.934L112.442 229.795L161.93 229.657L217.993 229.815L246.014 230.013L274.036 230.35L246.014 230.687L217.993 230.885L161.93 231.043L112.442 230.904L87.708 230.766C81.1333 230.706 56.3992 230.469 49.8246 230.35C56.3992 230.211 81.1333 229.974 87.708 229.934Z" fill="url(#paint58_linear_29_312)"/>
<path d="M88.1436 227.202L112.719 227.083L161.93 226.944L217.814 227.103L245.757 227.301L273.699 227.637L245.757 227.974L217.814 228.172L161.93 228.33L112.719 228.192L88.1436 228.073C81.47 228.013 56.8547 227.776 50.181 227.657C56.8547 227.518 81.47 227.281 88.1436 227.241V227.202Z" fill="url(#paint59_linear_29_312)"/>
<path d="M88.5794 224.449L113.016 224.33L161.93 224.191L217.617 224.35L245.46 224.548L273.303 224.884L245.46 225.221L217.617 225.419L161.93 225.577L113.016 225.439L88.5794 225.32C81.7869 225.261 57.3301 225.023 50.5376 224.884C57.3301 224.746 81.7869 224.508 88.5794 224.449Z" fill="url(#paint60_linear_29_312)"/>
<path d="M89.0151 221.716L113.314 221.597L161.93 221.458L217.438 221.617L245.202 221.815L272.966 222.152L245.202 222.488L217.438 222.686L161.93 222.845L113.314 222.706L89.0151 222.587C82.1236 222.528 57.8054 222.29 50.9139 222.152C57.8054 222.013 82.1236 221.775 89.0151 221.716Z" fill="url(#paint61_linear_29_312)"/>
<path d="M89.4508 218.983L113.611 218.864L161.95 218.725L217.28 218.884L244.945 219.082L272.61 219.418L244.945 219.755L217.28 219.953L161.95 220.112L113.611 219.973L89.4508 219.854C82.4404 219.795 58.2806 219.557 51.2703 219.418C58.2806 219.28 82.4404 219.042 89.4508 218.983Z" fill="url(#paint62_linear_29_312)"/>
<path d="M89.8864 216.25L113.888 216.132L161.93 215.993L217.082 216.151L244.648 216.349L272.214 216.686L244.648 217.023L217.082 217.221L161.93 217.379L113.888 217.24L89.8864 217.122C82.7771 217.062 58.7559 216.825 51.6466 216.686C58.7559 216.547 82.7771 216.31 89.8864 216.25Z" fill="url(#paint63_linear_29_312)"/>
<path d="M90.3221 213.517L114.185 213.398L161.95 213.26L216.923 213.418L244.41 213.616L271.897 213.953L244.41 214.29L216.923 214.488L161.95 214.646L114.185 214.507L90.3221 214.389C83.094 214.329 59.2312 214.092 52.0031 213.953C59.2312 213.814 83.094 213.577 90.3221 213.517Z" fill="url(#paint64_linear_29_312)"/>
<path d="M90.7379 210.785L114.462 210.666L161.93 210.527L216.725 210.686L244.113 210.884L271.501 211.22L244.113 211.557L216.725 211.755L161.93 211.913L114.462 211.775L90.7379 211.656C83.4108 211.596 59.6866 211.359 52.3397 211.22C59.6668 211.082 83.391 210.844 90.7379 210.785Z" fill="url(#paint65_linear_29_312)"/>
<path d="M91.1736 208.052L114.739 207.933L161.93 207.794L216.547 207.953L243.856 208.151L271.164 208.488L243.856 208.824L216.547 209.022L161.93 209.181L114.739 209.042L91.1736 208.923C83.7276 208.864 60.1421 208.626 52.7159 208.488C60.1619 208.349 83.7474 208.111 91.1736 208.052Z" fill="url(#paint66_linear_29_312)"/>
<path d="M91.6092 205.299L115.036 205.18L161.93 205.042L216.349 205.2L243.559 205.398L270.768 205.735L243.559 206.071L216.349 206.27L161.93 206.428L115.036 206.289L91.6092 206.171C84.0642 206.111 60.6173 205.893 53.0723 205.735C60.6173 205.576 84.0642 205.359 91.6092 205.299Z" fill="url(#paint67_linear_29_312)"/>
<path d="M92.0449 202.567L115.333 202.448L161.93 202.309L216.171 202.468L243.301 202.666L270.431 203.002L243.301 203.339L216.171 203.537L161.93 203.695L115.333 203.557L92.0449 203.438C84.4009 203.378 61.0926 203.161 53.4486 203.002C61.0926 202.844 84.4009 202.626 92.0449 202.567Z" fill="url(#paint68_linear_29_312)"/>
<path d="M92.4806 199.833L115.611 199.715L161.93 199.576L215.993 199.734L243.024 199.932L270.055 200.269L243.024 200.606L215.993 200.804L161.93 200.962L115.611 200.824L92.4806 200.705C84.7177 200.645 61.5679 200.427 53.8051 200.269C61.5679 200.111 84.7177 199.893 92.4806 199.833Z" fill="url(#paint69_linear_29_312)"/>
<path d="M92.9162 197.101L115.908 196.982L161.93 196.843L215.814 197.002L242.747 197.2L269.679 197.536L242.747 197.873L215.814 198.071L161.93 198.229L115.908 198.091L92.9162 197.972C85.0544 197.913 62.0431 197.695 54.1615 197.536C62.0233 197.378 85.0346 197.16 92.9162 197.101Z" fill="url(#paint70_linear_29_312)"/>
<path d="M93.3519 194.368L116.205 194.249L161.95 194.11L215.656 194.269L242.509 194.467L269.362 194.803L242.509 195.14L215.656 195.338L161.95 195.497L116.205 195.358L93.3519 195.239C85.3712 195.18 62.5184 194.962 54.5378 194.803C62.5184 194.645 85.3712 194.427 93.3519 194.368Z" fill="url(#paint71_linear_29_312)"/>
<path d="M93.7876 191.635L116.502 191.516L161.95 191.378L215.478 191.536L242.232 191.734L268.986 192.071L242.232 192.407L215.478 192.605L161.95 192.764L116.502 192.625L93.7876 192.506C85.7079 192.447 62.9937 192.229 54.8942 192.071C62.9739 191.912 85.6881 191.695 93.7876 191.635Z" fill="url(#paint72_linear_29_312)"/>
<path d="M94.2232 188.902L116.779 188.783L161.93 188.645L215.26 188.803L241.935 189.001L268.61 189.338L241.935 189.674L215.26 189.872L161.93 190.031L116.779 189.892L94.2232 189.773C86.0247 189.714 63.4491 189.496 55.2704 189.318C63.4689 189.159 86.0445 188.942 94.2232 188.862V188.902Z" fill="url(#paint73_linear_29_312)"/>
<path d="M94.6391 186.15L117.056 186.031L161.93 185.892L215.082 186.051L241.658 186.249L268.233 186.585L241.658 186.922L215.082 187.12L161.93 187.278L117.056 187.14L94.6391 187.021C86.3416 186.961 63.9047 186.744 55.6072 186.565C63.9047 186.407 86.3416 186.189 94.6391 186.11V186.15Z" fill="url(#paint74_linear_29_312)"/>
<path d="M95.0748 183.417L117.353 183.298L161.93 183.159L214.904 183.318L241.4 183.516L267.897 183.852L241.4 184.189L214.904 184.387L161.93 184.545L117.353 184.407L95.0748 184.288C86.6585 184.229 64.38 184.011 55.9835 183.832C64.3998 183.674 86.6783 183.456 95.0748 183.377V183.417Z" fill="url(#paint75_linear_29_312)"/>
<path d="M95.5105 180.684L117.631 180.565L161.93 180.427L214.725 180.585L241.123 180.783L267.52 181.12L241.123 181.456L214.725 181.654L161.93 181.813L117.631 181.674L95.5105 181.555C86.9951 181.496 64.8552 181.278 56.3399 181.1C64.8552 180.922 86.9951 180.724 95.5105 180.644V180.684Z" fill="url(#paint76_linear_29_312)"/>
<path d="M95.9461 177.951L117.928 177.832L161.93 177.713L214.547 177.872L240.846 178.07L267.144 178.406L240.846 178.743L214.547 178.941L161.93 179.099L117.928 178.981L95.9461 178.862C87.3318 178.802 65.3305 178.584 56.6964 178.406C65.3107 178.228 87.312 178.03 95.9461 177.951Z" fill="url(#paint77_linear_29_312)"/>
<path d="M96.3818 175.218L118.225 175.119L161.95 175L214.389 175.159L240.608 175.357L266.827 175.694L240.608 176.03L214.389 176.228L161.95 176.387L118.225 176.268L96.3818 176.169C87.6487 176.109 65.8058 175.892 57.0726 175.713C65.8058 175.535 87.6487 175.337 96.3818 175.258V175.218Z" fill="url(#paint78_linear_29_312)"/>
<path d="M96.8175 172.485L118.502 172.386L161.93 172.267L214.191 172.426L240.311 172.624L266.431 172.96L240.311 173.297L214.191 173.495L161.93 173.654L118.502 173.535L96.8175 173.436C87.9853 173.376 66.2811 173.158 57.4291 172.98C66.2613 172.802 87.9655 172.584 96.8175 172.525V172.485Z" fill="url(#paint79_linear_29_312)"/>
<path d="M97.2531 169.753L118.799 169.653L161.93 169.535L213.993 169.693L240.034 169.891L266.075 170.228L240.034 170.564L213.993 170.762L161.93 170.921L118.799 170.802L97.2531 170.703C88.3021 170.644 66.7365 170.426 57.8053 170.248C66.7563 170.069 88.3219 169.852 97.2531 169.792V169.753Z" fill="url(#paint80_linear_29_312)"/>
<path d="M97.6888 167L119.096 166.901L161.95 166.782L213.834 166.94L239.776 167.138L265.718 167.475L239.776 167.812L213.834 168.01L161.95 168.168L119.096 168.049L97.6888 167.95C88.6388 167.871 67.2118 167.673 58.1617 167.495C67.2118 167.317 88.6388 167.099 97.6888 167.039V167Z" fill="url(#paint81_linear_29_312)"/>
<path d="M98.1244 164.267L119.373 164.168L161.93 164.049L213.636 164.208L239.499 164.406L265.362 164.742L239.499 165.079L213.636 165.277L161.93 165.436L119.373 165.317L98.1244 165.218C88.9556 165.139 67.687 164.94 58.5182 164.762C67.687 164.584 88.9556 164.366 98.1244 164.307V164.267Z" fill="url(#paint82_linear_29_312)"/>
<path d="M98.5403 161.534L119.65 161.435L161.93 161.316L213.458 161.475L239.222 161.673L264.986 162.009L239.222 162.346L213.458 162.544L161.93 162.702L119.65 162.584L98.5403 162.485C89.2724 162.405 68.1425 162.207 58.8746 162.029C68.1425 161.851 89.2724 161.633 98.5403 161.574V161.534Z" fill="url(#paint83_linear_29_312)"/>
<path d="M98.976 158.801L119.947 158.702L161.93 158.583L213.28 158.742L238.944 158.94L264.609 159.277L238.944 159.613L213.28 159.811L161.93 159.97L119.947 159.851L98.976 159.752C89.5893 159.673 68.6178 159.475 59.2311 159.296C68.6178 159.118 89.5893 158.9 98.976 158.841V158.801Z" fill="url(#paint84_linear_29_312)"/>
<path d="M99.4116 156.068L120.245 155.969L161.93 155.851L213.101 156.009L238.687 156.207L264.273 156.544L238.687 156.88L213.101 157.078L161.93 157.237L120.245 157.118L99.4116 157.019C89.9259 156.94 69.0931 156.742 59.6074 156.563C69.0931 156.365 89.9259 156.167 99.4116 156.108V156.068Z" fill="url(#paint85_linear_29_312)"/>
<path d="M99.8474 153.336L120.522 153.237L161.93 153.118L212.923 153.276L238.41 153.474L263.897 153.811L238.41 154.148L212.923 154.346L161.93 154.504L120.522 154.385L99.8474 154.286C90.2627 154.207 69.5684 154.009 59.9639 153.831C69.5486 153.633 90.2627 153.435 99.8474 153.375V153.336Z" fill="url(#paint86_linear_29_312)"/>
<path d="M100.283 150.603L120.819 150.504L161.93 150.385L212.725 150.543L238.133 150.741L263.54 151.078L238.133 151.415L212.725 151.613L161.93 151.771L120.819 151.652L100.283 151.553C90.5796 151.474 70.0239 151.276 60.3204 151.078C70.0239 150.88 90.5796 150.682 100.283 150.603Z" fill="url(#paint87_linear_29_312)"/>
<path d="M100.719 147.85L121.116 147.751L161.95 147.632L212.567 147.791L237.875 147.989L263.184 148.325L237.875 148.662L212.567 148.86L161.95 149.019L121.116 148.9L100.719 148.801C90.9162 148.721 70.4991 148.523 60.6966 148.325C70.4991 148.127 90.9162 147.929 100.719 147.85Z" fill="url(#paint88_linear_29_312)"/>
<path d="M101.154 145.118L121.393 145.019L161.93 144.9L212.369 145.058L237.598 145.256L262.827 145.593L237.598 145.93L212.369 146.128L161.93 146.286L121.393 146.167L101.154 146.068C91.233 145.989 70.9744 145.791 61.053 145.593C70.9744 145.395 91.233 145.197 101.154 145.118Z" fill="url(#paint89_linear_29_312)"/>
<path d="M101.59 142.385L121.69 142.286L161.95 142.167L212.21 142.325L237.34 142.523L262.471 142.86L237.34 143.196L212.21 143.395L161.95 143.553L121.69 143.434L101.59 143.335C91.5697 143.256 71.4497 143.058 61.4293 142.86C71.4497 142.662 91.5697 142.464 101.59 142.385Z" fill="url(#paint90_linear_29_312)"/>
<path d="M102.026 139.652L121.987 139.553L161.95 139.434L212.032 139.593L237.063 139.791L262.094 140.127L237.063 140.464L212.032 140.662L161.95 140.82L121.987 140.701L102.026 140.602C91.8865 140.523 71.925 140.325 61.7858 140.127C71.925 139.929 91.8865 139.731 102.026 139.652Z" fill="url(#paint91_linear_29_312)"/>
<path d="M102.442 136.919L122.245 136.82L161.91 136.701L211.814 136.859L236.766 137.057L261.718 137.394L236.766 137.731L211.814 137.929L161.91 138.087L122.245 137.968L102.442 137.869C92.2033 137.79 72.3804 137.592 62.1224 137.394C72.3606 137.196 92.1835 136.998 102.442 136.919Z" fill="url(#paint92_linear_29_312)"/>
<path d="M102.877 134.186L122.542 134.087L161.93 133.969L211.636 134.127L236.489 134.325L261.342 134.662L236.489 134.998L211.636 135.196L161.93 135.355L122.542 135.236L102.877 135.137C92.5202 135.058 72.8359 134.86 62.4987 134.662C72.8557 134.464 92.54 134.266 102.877 134.186Z" fill="url(#paint93_linear_29_312)"/>
<path d="M103.313 131.433L122.839 131.334L161.93 131.216L211.458 131.374L236.231 131.572L261.005 131.909L236.231 132.245L211.458 132.443L161.93 132.602L122.839 132.483L103.313 132.384C92.8568 132.305 73.3112 132.107 62.8551 131.909C73.3112 131.711 92.8568 131.513 103.313 131.433Z" fill="url(#paint94_linear_29_312)"/>
<path d="M103.749 128.701L123.116 128.602L161.93 128.483L211.28 128.641L235.954 128.839L260.629 129.176L235.954 129.513L211.28 129.711L161.93 129.869L123.116 129.75L103.749 129.651C93.1935 129.572 73.7865 129.374 63.2314 129.176C73.7865 128.958 93.1935 128.78 103.749 128.701Z" fill="url(#paint95_linear_29_312)"/>
<path d="M104.184 125.968L123.413 125.869L161.93 125.75L211.101 125.908L235.697 126.106L260.292 126.443L235.697 126.78L211.101 126.978L161.93 127.136L123.413 127.017L104.184 126.918C93.5104 126.839 74.2617 126.641 63.5878 126.443C74.2617 126.225 93.5104 126.047 104.184 125.968Z" fill="url(#paint96_linear_29_312)"/>
<path d="M104.62 123.235L123.71 123.156L161.93 123.037L210.923 123.196L235.42 123.394L259.916 123.73L235.42 124.067L210.923 124.265L161.93 124.423L123.71 124.305L104.62 124.225C93.847 124.146 74.737 123.968 63.9641 123.75C74.737 123.532 93.847 123.354 104.62 123.275V123.235Z" fill="url(#paint97_linear_29_312)"/>
<path d="M105.056 120.502L124.007 120.423L161.95 120.304L210.765 120.462L235.162 120.66L259.56 120.997L235.162 121.334L210.765 121.532L161.95 121.69L124.007 121.571L105.056 121.492C94.1638 121.413 75.2122 121.235 64.3205 121.017C75.2122 120.799 94.1638 120.621 105.056 120.542V120.502Z" fill="url(#paint98_linear_29_312)"/>
<path d="M105.491 117.769L124.284 117.69L161.93 117.571L210.567 117.73L234.885 117.928L259.203 118.264L234.885 118.601L210.567 118.799L161.93 118.958L124.284 118.839L105.491 118.759C94.5005 118.68 75.6875 118.502 64.6769 118.284C75.6677 118.066 94.4806 117.888 105.491 117.809V117.769Z" fill="url(#paint99_linear_29_312)"/>
<path d="M105.927 115.036L124.581 114.957L161.95 114.838L210.388 114.997L234.608 115.195L258.827 115.531L234.608 115.868L210.388 116.066L161.95 116.225L124.581 116.106L105.927 116.027C94.8173 115.947 76.143 115.769 65.0532 115.551C76.1628 115.333 94.8371 115.155 105.927 115.076V115.036Z" fill="url(#paint100_linear_29_312)"/>
<path d="M106.343 112.284L124.859 112.205L161.93 112.086L210.19 112.244L234.33 112.442L258.47 112.779L234.33 113.116L210.19 113.314L161.93 113.472L124.859 113.353L106.343 113.274C95.1343 113.195 76.5985 113.017 65.39 112.779C76.5985 112.561 95.1343 112.383 106.343 112.284Z" fill="url(#paint101_linear_29_312)"/>
<path d="M106.779 109.551L125.136 109.472L161.91 109.353L209.992 109.511L234.033 109.709L258.074 110.046L234.033 110.383L209.992 110.581L161.91 110.739L125.136 110.62L106.779 110.541C95.4511 110.462 77.0738 110.284 65.7662 110.046C77.0936 109.828 95.4709 109.65 106.779 109.551Z" fill="url(#paint102_linear_29_312)"/>
<path d="M107.214 106.818L125.433 106.739L161.93 106.62L209.834 106.779L233.776 106.977L257.718 107.313L233.776 107.65L209.834 107.848L161.93 108.006L125.433 107.888L107.214 107.808C95.7878 107.729 77.5491 107.551 66.1227 107.313C77.5491 107.095 95.7878 106.917 107.214 106.818Z" fill="url(#paint103_linear_29_312)"/>
<path d="M107.65 104.085L125.73 104.006L161.93 103.887L209.656 104.046L233.519 104.244L257.381 104.58L233.519 104.917L209.656 105.115L161.93 105.273L125.73 105.155L107.65 105.075C96.1244 104.996 78.0243 104.818 66.4791 104.58C78.0045 104.343 96.1046 104.184 107.65 104.085Z" fill="url(#paint104_linear_29_312)"/>
<path d="M108.085 101.353L126.007 101.273L161.93 101.155L209.477 101.313L233.241 101.511L257.005 101.848L233.241 102.184L209.477 102.382L161.93 102.541L126.007 102.422L108.085 102.343C96.4412 102.244 78.4996 102.085 66.8553 101.848C78.4996 101.61 96.4412 101.452 108.085 101.353Z" fill="url(#paint105_linear_29_312)"/>
<path d="M108.521 98.6194L126.304 98.5402L161.93 98.4214L209.299 98.5798L232.984 98.7779L256.668 99.1145L232.984 99.4512L209.299 99.6492L161.93 99.8076L126.304 99.6888L108.521 99.6096C96.7779 99.5106 78.9748 99.3521 67.2118 99.1145C78.955 98.8769 96.7581 98.7184 108.521 98.6194Z" fill="url(#paint106_linear_29_312)"/>
<path d="M108.957 95.887L126.601 95.8078L161.95 95.689L209.121 95.8474L232.707 96.0454L256.292 96.3821L232.707 96.7187L209.121 96.9167L161.95 97.0752L126.601 96.9564L108.957 96.8771C97.0947 96.7781 79.4303 96.6197 67.5881 96.3821C79.4501 96.1444 97.1145 95.986 108.957 95.887Z" fill="url(#paint107_linear_29_312)"/>
<path d="M109.392 93.1345L126.898 93.0553L161.95 92.9365L208.943 93.0949L232.449 93.293L255.955 93.6296L232.449 93.9663L208.943 94.1643L161.95 94.3227L126.898 94.2039L109.392 94.1247C97.4314 94.0257 79.9056 93.8673 67.9445 93.6296C79.9056 93.392 97.4314 93.2336 109.392 93.1345Z" fill="url(#paint108_linear_29_312)"/>
<path d="M109.828 90.4014L127.176 90.3222L161.93 90.2034L208.745 90.3618L232.152 90.5598L255.559 90.8965L232.152 91.2331L208.745 91.4312L161.93 91.5896L127.176 91.4708L109.828 91.3916C97.7482 91.2926 80.3809 91.1341 68.301 90.8965C80.3809 90.6589 97.7482 90.5004 109.828 90.4014Z" fill="url(#paint109_linear_29_312)"/>
<path d="M110.244 87.6687L127.453 87.5895L161.93 87.4707L208.566 87.6291L231.875 87.8272L255.183 88.1638L231.875 88.5005L208.566 88.6985L161.93 88.8569L127.453 88.7381L110.244 88.6589C98.0651 88.5599 80.8363 88.4015 68.6574 88.1638C80.8363 87.9262 98.0651 87.7678 110.244 87.6687Z" fill="url(#paint110_linear_29_312)"/>
<path d="M110.68 84.9356L127.75 84.8564L161.93 84.7375L208.388 84.8959L231.617 85.094L254.846 85.4306L231.617 85.7673L208.388 85.9653L161.93 86.1238L127.75 86.0049L110.68 85.9257C98.3819 85.8267 81.3116 85.6683 69.0139 85.4306C81.3116 85.193 98.3819 85.0148 110.68 84.9356Z" fill="url(#paint111_linear_29_312)"/>
<path d="M111.115 82.2031L128.027 82.1239L161.93 82.0051L208.21 82.1636L231.34 82.3616L254.47 82.6982L231.34 83.0349L208.21 83.2329L161.93 83.3913L128.027 83.2725L111.115 83.1933C98.7185 83.0943 81.7868 82.9359 69.3901 82.6982C81.7868 82.4606 98.7185 82.2824 111.115 82.2031Z" fill="url(#paint112_linear_29_312)"/>
<path d="M111.551 79.47L128.324 79.3908L161.93 79.272L208.032 79.4304L231.083 79.6284L254.133 79.9651L231.083 80.3017L208.032 80.4998L161.93 80.6582L128.324 80.5394L111.551 80.4602C99.0552 80.3612 82.2621 80.2027 69.7465 79.9651C82.2423 79.7077 99.0353 79.5492 111.551 79.47Z" fill="url(#paint113_linear_29_312)"/>
<path d="M111.987 76.7373L128.621 76.6581L161.93 76.5393L207.834 76.6977L230.786 76.8957L253.737 77.2324L230.786 77.569L207.834 77.7671L161.93 77.9255L128.621 77.8067L111.987 77.7275C99.3721 77.6285 82.7177 77.47 70.1031 77.2126C82.7177 76.9552 99.3721 76.7967 111.987 76.6977V76.7373Z" fill="url(#paint114_linear_29_312)"/>
<path d="M112.422 73.9846L128.898 73.9252L161.93 73.8064L207.655 73.9648L230.528 74.1628L253.401 74.4995L230.528 74.8362L207.655 75.0342L161.93 75.1926L128.898 75.0738L112.422 75.0144C99.7087 74.9154 83.1929 74.7569 70.4792 74.4995C83.1929 74.242 99.7087 74.0836 112.422 73.9846Z" fill="url(#paint115_linear_29_312)"/>
<path d="M112.858 71.252L129.196 71.1925L161.93 71.0737L207.477 71.2322L230.251 71.4302L253.025 71.7669L230.251 72.1035L207.477 72.3015L161.93 72.4599L129.196 72.3411L112.858 72.2817C100.026 72.1827 83.6682 72.0243 70.8358 71.7669C83.6682 71.5094 100.026 71.351 112.858 71.252Z" fill="url(#paint116_linear_29_312)"/>
<path d="M113.294 68.5188L129.493 68.4594L161.95 68.3406L207.319 68.499L229.994 68.697L252.668 69.0337L229.994 69.3703L207.319 69.5684L161.95 69.7268L129.493 69.608L113.294 69.5486C100.362 69.4496 84.1435 69.2911 71.2121 69.0337C84.1435 68.7763 100.362 68.6178 113.294 68.5188Z" fill="url(#paint117_linear_29_312)"/>
<path d="M113.729 65.7861L129.77 65.7267L161.93 65.6079L207.121 65.7663L229.716 65.9644L252.312 66.301L229.716 66.6377L207.121 66.8357L161.93 66.9941L129.77 66.8753L113.729 66.8159C100.679 66.7169 84.6188 66.5584 71.5685 66.301C84.6188 66.0436 100.679 65.8851 113.729 65.7861Z" fill="url(#paint118_linear_29_312)"/>
<path d="M114.145 63.0532L130.047 62.9938L161.93 62.875L206.943 63.0334L229.439 63.2315L251.935 63.5681L229.439 63.9048L206.943 64.1028L161.93 64.2612L130.047 64.1424L114.145 64.083C100.996 63.984 85.0743 63.8255 71.925 63.5681C85.0743 63.3107 100.996 63.1523 114.145 63.0532Z" fill="url(#paint119_linear_29_312)"/>
<path d="M114.581 60.3206L130.344 60.2611L161.93 60.1423L206.745 60.3008L229.162 60.4988L251.579 60.8354L229.162 61.1721L206.745 61.3701L161.93 61.5285L130.344 61.4097L114.581 61.3503C101.313 61.2513 85.5297 61.0929 72.2814 60.8354C85.5495 60.578 101.333 60.4196 114.581 60.3206Z" fill="url(#paint120_linear_29_312)"/>
<path d="M115.017 57.5874L130.641 57.528L161.93 57.4092L206.566 57.5676L228.884 57.7656L251.203 58.1023L228.884 58.4389L206.566 58.637L161.93 58.7954L130.641 58.6766L115.017 58.6172C101.649 58.5181 86.0049 58.3597 72.6378 58.1023C86.0049 57.8448 101.649 57.6864 115.017 57.5874Z" fill="url(#paint121_linear_29_312)"/>
<path d="M115.452 54.835L130.918 54.7756L161.93 54.6567L206.388 54.8152L228.627 55.0132L250.866 55.3499L228.627 55.6865L206.388 55.8845L161.93 56.043L130.918 55.9242L115.452 55.8647C101.986 55.7657 86.4802 55.6073 73.0141 55.3499C86.4802 55.0726 101.986 54.934 115.452 54.835Z" fill="url(#paint122_linear_29_312)"/>
<path d="M115.888 52.1021L131.215 52.0426L161.93 51.9238L206.21 52.0823L228.35 52.2803L250.49 52.6169L228.35 52.9536L206.21 53.1516L161.93 53.31L131.215 53.1912L115.888 53.1318C102.303 53.0328 86.9555 52.8744 73.3705 52.6169C86.9555 52.3397 102.303 52.2011 115.888 52.1021Z" fill="url(#paint123_linear_29_312)"/>
<path d="M116.324 49.3694L131.513 49.31L161.95 49.1912L206.051 49.3496L228.092 49.5476L250.133 49.8843L228.092 50.2209L206.051 50.4189L161.95 50.5774L131.513 50.4586L116.324 50.3992C102.64 50.3001 87.4308 50.1417 73.7468 49.8843C87.4308 49.607 102.64 49.4684 116.324 49.3694Z" fill="url(#paint124_linear_29_312)"/>
<path d="M116.759 46.6362L131.79 46.5768L161.93 46.458L205.853 46.6164L227.815 46.8145L249.777 47.1511L227.815 47.4878L205.853 47.6858L161.93 47.8442L131.79 47.7254L116.759 47.666C102.956 47.567 87.9061 47.4284 74.1033 47.1511C87.9061 46.8739 102.956 46.7353 116.759 46.6362Z" fill="url(#paint125_linear_29_312)"/>
<path d="M117.195 43.9038L132.087 43.8444L161.93 43.7454L205.675 43.9038L227.538 44.1018L249.401 44.4385L227.538 44.7751L205.675 44.9731L161.93 45.1316L132.087 45.0326L117.195 44.9731C103.293 44.8741 88.3813 44.7355 74.4597 44.4583C88.3615 44.181 103.273 44.0424 117.195 43.9434V43.9038Z" fill="url(#paint126_linear_29_312)"/>
<path d="M117.63 41.1706L132.384 41.1112L161.95 41.0122L205.497 41.1706L227.28 41.3687L249.064 41.7053L227.28 42.042L205.497 42.24L161.95 42.3984L132.384 42.2994L117.63 42.24C103.61 42.141 88.8367 42.0024 74.8359 41.7251C88.8566 41.4479 103.63 41.3093 117.63 41.2103V41.1706Z" fill="url(#paint127_linear_29_312)"/>
<path d="M118.047 38.4182L132.641 38.3588L161.91 38.2598L205.279 38.4182L226.964 38.6162L248.648 38.9529L226.964 39.2895L205.279 39.4876L161.91 39.646L132.641 39.547L118.047 39.4876C103.927 39.3687 89.2924 39.2499 75.1727 38.9529C89.2924 38.6756 103.927 38.537 118.047 38.4182Z" fill="url(#paint128_linear_29_312)"/>
<path d="M118.482 35.685L132.938 35.6256L161.93 35.5266L205.121 35.685L226.726 35.8831L248.331 36.2197L226.726 36.5564L205.121 36.7544L161.93 36.9128L132.938 36.8138L118.482 36.7544C104.244 36.6356 89.7676 36.5168 75.549 36.2197C89.7874 35.9425 104.263 35.8039 118.482 35.685Z" fill="url(#paint129_linear_29_312)"/>
<path d="M75.9054 33.4873C90.2429 33.2101 104.58 33.0714 118.918 32.9526L161.93 32.7942L204.943 32.9526L226.449 33.1506L247.955 33.4873L226.449 33.8239L204.943 34.022L161.93 34.1804L118.918 34.022C104.58 33.9032 90.2429 33.7843 75.9054 33.4873Z" fill="url(#paint130_linear_29_312)"/>
</g>
<g style="mix-blend-mode:multiply">
<path d="M414.004 -165.633L329.504 -103.174V-103.214L421.708 -171.376L413.846 -182.01L329.682 -119.789L311.741 -187.476L270.827 -99.7284L243.361 -144.959L161.95 -43.5865L80.5392 -144.959L53.0723 -99.7284L12.1392 -187.476L-5.80238 -119.789L-89.9657 -182.01L-97.8275 -171.376L-5.62416 -103.214V-103.174L-90.1241 -165.633L-97.6691 -155.454L-5.30731 -87.1732L-5.46574 -86.5593L-90.3023 -149.256L-97.4909 -139.533L-4.97066 -71.1327L-5.28751 -69.9247L-90.4608 -132.879L-97.3324 -123.591L-4.67361 -55.0922L-5.14889 -53.3099L-90.639 -116.502L-97.174 -107.669L-4.35676 -39.0516L-4.99046 -36.6753L-90.7974 -100.124L-96.9958 -91.7478L-4.02011 -23.0111L-4.81223 -20.0604L-90.9558 -83.7473L-96.8176 -75.8062L-3.68345 -6.97057L-4.6142 -3.42581L-91.1341 -67.3701L-96.6591 -59.8845L-3.38641 9.06996L-4.47558 13.189L-91.2925 -50.9929L-96.4809 -43.9628L-3.04975 25.1105L-4.29736 29.8236L-91.4707 -34.6157L-96.3423 -28.0411L-2.75271 41.151L-4.15873 46.4385L-91.6291 -18.2386L-96.1641 -12.0996L-2.43586 57.1916L-4.00031 63.0533L-91.7876 -1.86136L-95.9858 3.82213L-2.09921 73.2321L-3.80228 79.6879L-91.9658 14.5158L-95.8274 19.7439L-1.78236 89.2726L-3.64384 96.3027L-92.1242 30.893L-95.6492 35.6656L-1.4457 105.293L-3.46561 112.918L-92.3024 47.2702L-95.4907 51.5873L-1.14865 121.334L-3.327 129.532L-92.4609 63.6474L-95.3323 67.5288L-0.831802 137.394L-3.16857 146.187L-92.6391 80.0048L-95.1739 83.4307L-0.65358 153.296L14.3968 96.481L52.0425 177.198L81.5096 128.641L161.93 228.786L242.351 128.641L271.818 177.198L309.463 96.481L324.514 153.296L419.034 83.4307L416.499 80.0048L327.029 146.147L324.692 137.355L419.192 67.4892L416.321 63.6078L327.167 129.513L324.989 121.314L419.331 51.5675L416.143 47.2504L327.326 112.898L325.306 105.274L419.509 35.6458L415.984 30.8732L327.504 96.2829L325.643 89.2528L419.688 19.724L415.826 14.496L327.682 79.6681L325.979 73.2123L419.866 3.80232L415.668 -1.88116L327.841 63.0335L326.276 57.1718L420.004 -12.1194L415.47 -18.2584L327.979 46.4187L326.573 41.1312L420.163 -28.0609L415.291 -34.6355L328.138 29.8038L326.89 25.0907L420.321 -43.9826L415.133 -51.0127L328.316 13.1692L327.227 9.05016L420.5 -59.9043L414.974 -67.3899L328.494 -3.44562L327.563 -6.99037L420.698 -75.826L414.836 -83.7671L328.672 -20.0802L327.88 -23.0309L420.856 -91.7676L414.658 -100.144L328.831 -36.6951L328.197 -39.0714L421.014 -107.689L414.479 -116.521L328.989 -53.3099L328.514 -55.0922L421.173 -123.591L414.301 -132.879L329.148 -69.9247L328.831 -71.1327L421.351 -139.533L414.163 -149.276L329.326 -86.5593L329.167 -87.1732L421.529 -155.454L414.004 -165.633ZM271.263 134.701L242.905 87.9854L161.95 188.803L80.9947 87.9854L52.6366 134.701L14.1988 52.2606L14.674 50.4981L52.0029 130.523L81.668 81.6484L161.99 181.674L242.311 81.6484L271.976 130.523L309.305 50.4981L309.78 52.2606L271.342 134.701H271.263ZM309.305 65.8455L309.998 68.4595L271.283 151.474L242.846 104.64L161.91 205.418L80.9749 104.64L52.5376 151.474L13.8225 68.4595L14.5156 65.8455L51.9435 146.108L81.5492 97.3523L161.89 197.418L242.232 97.3523L271.837 146.108L309.265 65.8455H309.305ZM271.224 117.967L242.925 71.3508L161.93 172.208L80.9353 71.3508L52.6366 117.967L14.4562 36.1012L14.6938 35.1903L51.9039 114.997L81.6284 66.0237L161.91 166.01L242.192 66.0237L271.917 114.997L309.127 35.1903L309.364 36.1012L271.184 117.967H271.224ZM271.204 101.214L242.964 54.6964L161.93 155.593L80.8957 54.6964L52.6564 101.214L14.7335 19.9023V19.8429L51.8643 99.4316L81.668 50.3595L161.93 150.306L242.192 50.3595L271.996 99.4316L309.107 19.8429V19.9023L271.204 101.214ZM161.93 72.6182L81.5492 -27.4866L81.8463 -27.9619L161.93 71.7865L242.014 -27.9619L242.311 -27.4866L161.93 72.6182ZM242.667 -11.3075L161.95 89.2132L81.2323 -11.3075L81.8264 -12.2976L161.95 87.4904L242.073 -12.2976L242.667 -11.3075ZM81.7868 3.36667L161.95 103.194L242.113 3.36667L243.024 4.87169L161.95 105.828L80.8759 4.87169L81.7868 3.36667ZM271.164 84.4803L242.984 38.0815L161.93 139.018L80.8759 38.0815L52.696 84.4803L52.1614 83.3515L81.7076 34.6952L161.93 134.602L242.153 34.6952L271.699 83.3515L271.164 84.4803ZM271.144 67.7268L243.044 21.4271L161.95 122.403L80.8561 21.4271L52.7555 67.7268L52.5178 67.2119L81.767 19.0309L161.95 118.898L242.133 19.0309L271.382 67.2119L271.144 67.7268ZM271.323 168.208L242.826 121.274L161.93 222.013L81.0343 121.274L52.5376 168.208L13.5651 84.6387L14.476 81.1929L52.0029 161.673L81.5492 113.017L161.93 213.121L242.311 113.017L271.857 161.673L309.384 81.1929L310.295 84.6387L271.323 168.208Z" fill="#969696"/>
<path d="M326.851 162.782L310.493 101.036L271.362 184.942L242.806 137.909L161.93 238.608L81.0739 137.909L52.498 184.942L13.3671 101.036L-2.99034 162.782L-92.7975 96.3821L-94.9957 99.3724L-0.811989 169L14.3374 111.829L52.0822 192.764L81.4898 144.325L161.93 244.509L242.37 144.325L271.798 192.764L309.543 111.829L324.672 169L418.856 99.3724L416.658 96.3821L326.851 162.782Z" fill="#969696"/>
<path d="M326.692 179.417L310.414 118.007L271.402 201.695L242.767 154.544L161.93 255.203L81.0938 154.544L52.4783 201.695L13.4463 118.007L-2.81206 179.417L-92.9559 112.759L-94.8174 115.294L-0.970367 184.664L14.2582 127.176L52.1218 208.329L81.4503 159.99L161.93 260.213L242.41 159.99L271.758 208.329L309.602 127.176L324.85 184.664L418.698 115.294L416.836 112.759L326.692 179.417Z" fill="#969696"/>
<path d="M326.534 196.031L310.354 134.978L271.422 218.429L242.747 171.178L161.93 271.798L81.1333 171.178L52.4386 218.429L13.5254 134.978L-2.65373 196.031L-93.1342 129.136L-94.6591 131.216L-1.12889 200.348L14.1987 142.503L52.1415 223.894L81.4303 175.654L161.93 275.917L242.45 175.654L271.719 223.894L309.681 142.503L325.009 200.348L418.519 131.216L416.994 129.136L326.534 196.031Z" fill="#969696"/>
<path d="M326.355 212.646L310.275 151.949L271.461 235.182L242.707 187.813L161.93 288.393L81.1729 187.813L52.4188 235.182L13.5849 151.949L-2.49526 212.646L-93.2926 145.513L-94.5006 147.137L-1.30707 216.032L14.1196 157.831L52.1812 239.44L81.3908 191.318L161.93 291.621L242.469 191.318L271.699 239.44L309.76 157.831L325.167 216.032L418.361 147.137L417.173 145.513L326.355 212.646Z" fill="#969696"/>
<path d="M326.197 229.281L310.196 168.921L271.501 251.916L242.668 204.467L161.93 305.008L81.1928 204.467L52.3793 251.916L13.6642 168.921L-2.31697 229.281L-93.4708 161.891L-94.3223 163.059L-1.46543 231.716L14.0404 173.159L52.201 255.005L81.371 206.982L161.93 307.325L242.509 206.982L271.659 255.005L309.82 173.159L325.346 231.716L418.202 163.059L417.331 161.891L326.197 229.281Z" fill="#969696"/>
<path d="M326.039 245.895L310.137 185.892L271.521 268.669L242.648 221.102L161.93 321.603L81.2323 221.102L52.3396 268.669L13.7433 185.892L-2.15864 245.895L-93.6293 178.268L-94.164 179.001L-1.64376 247.401L13.9809 188.486L52.2406 270.55L81.3313 222.647L161.93 323.029L242.549 222.647L271.62 270.55L309.899 188.486L325.504 247.401L418.024 179.001L417.489 178.268L326.039 245.895Z" fill="#969696"/>
<path d="M325.86 262.51L310.176 203.299L310.057 202.863L271.56 285.423L242.727 237.935L242.608 237.737L161.93 338.198L81.4106 237.915L81.2522 237.737L52.3198 285.423L14.0008 203.279L13.8027 202.863L-2.00017 262.51L-93.7877 194.645L-93.9857 194.922L-1.80213 263.065L13.9017 203.834L52.1416 285.838L52.2802 286.116L81.2918 238.311L161.811 338.574L161.93 338.733L242.568 238.311L271.441 285.858L271.6 286.116L309.978 203.834L325.603 262.847L325.662 263.065L417.866 194.922L417.668 194.645L325.86 262.51Z" fill="#969696"/>
</g>
<path d="M270.312 367.942C259.045 374.775 246.232 378.478 233.241 380.181C219.478 382.003 205.576 381.646 191.754 380.854C176.842 380.003 161.95 378.676 146.998 379.092C131.988 379.507 117.056 381.626 102.045 381.785C88.7575 381.923 75.0735 380.498 62.8352 375.032C61.3103 374.359 59.8053 373.606 58.3399 372.814C57.5873 372.418 56.914 373.547 57.6665 373.963C69.4692 380.359 82.9551 382.696 96.2628 383.052C111.254 383.468 126.185 381.428 141.137 380.636C156.306 379.824 171.416 380.894 186.545 381.844C200.764 382.735 215.042 383.409 229.241 381.943C242.192 380.616 255.124 377.547 266.708 371.467C268.154 370.715 269.58 369.903 270.986 369.051C271.719 368.616 271.045 367.467 270.312 367.903V367.942Z" fill="black"/>
</g>
<path d="M90.0646 320.553C94.7777 322.415 93.2529 368.675 89.8468 389.587C82.7572 389.072 76.44 388.161 71.5289 386.696C74.3013 368.655 77.054 350.634 79.8462 332.593C80.3017 329.623 80.7967 326.554 82.4404 324.039C84.0841 321.524 87.312 319.464 90.0844 320.573L90.0646 320.553Z" fill="#AFB4C4"/>
<path d="M124.225 265.401C126.72 306.869 129.235 348.297 131.73 389.765C122.74 390.062 113.175 390.3 104.085 390.181C101.273 390.141 98.4809 390.062 95.7877 389.943C96.4412 387.488 96.7779 384.874 97.0749 382.398C101.451 343.287 105.828 304.196 110.204 265.104C110.739 260.352 112.739 254.232 117.512 254.371C122.265 254.51 123.908 260.688 124.205 265.421L124.225 265.401Z" fill="#AFB4C4"/>
<path d="M161.098 359.961C164.465 369.625 167.831 379.309 171.198 388.993C167.752 388.894 164.604 388.815 161.93 388.815C157.771 388.815 152.583 388.993 146.741 389.191C147.929 380.081 149.117 370.972 150.306 361.862C150.761 358.357 152.326 353.862 155.851 354.04C158.663 354.179 160.168 357.308 161.098 359.961Z" fill="#AFB4C4"/>
<path d="M213.537 385.943C213.537 387.349 213.557 388.795 213.696 390.22C201.952 390.22 189.833 389.686 179.456 389.309C184.05 373.566 183.733 356.377 183.021 339.782C182.169 319.187 181.001 297.859 188.546 278.689C189.496 276.253 190.783 273.679 193.16 272.59C196.209 271.204 199.932 272.926 201.913 275.639C203.873 278.333 204.487 281.778 205.002 285.066C210.369 318.414 213.24 352.159 213.517 385.943H213.537Z" fill="#AFB4C4"/>
<path d="M256.411 385.171C250.331 387.963 240.549 389.309 229.34 389.864C229.479 388.656 229.558 387.428 229.637 386.22C230.568 369.863 231.518 353.505 232.449 337.128C232.627 334.178 233.221 330.613 235.974 329.603C237.954 328.87 240.251 329.94 241.578 331.603C242.905 333.267 243.479 335.386 243.994 337.445C248.113 353.367 252.272 369.269 256.411 385.19V385.171Z" fill="#AFB4C4"/>
<path d="M250.549 153.375C250.549 153.375 259.223 167.891 263.164 168.901C264.906 169.357 273.877 168.049 284.749 164.782C270.61 150.563 261.778 131.711 261.738 111.63C254.035 124.799 250.549 153.356 250.549 153.356V153.375Z" fill="#AFB4C4"/>
<path d="M323.841 142.9C320.91 146.365 317.187 149.454 313.008 152.187C306.869 132.067 300.75 111.947 294.611 91.8075C289.641 75.5294 284.353 58.6967 272.927 46.1019C258.668 30.398 237.063 23.6848 220.033 11.1692C245.242 25.4472 282.967 35.9033 287.145 53.5083C292.314 75.3511 323.841 142.9 323.841 142.9Z" fill="#FFC112"/>
<path d="M304.117 157.257C303.305 157.673 302.473 158.049 301.661 158.425C296.73 136.365 279.996 64.4 269.382 50.9933C261.916 41.5472 238.034 27.586 219.914 17.8032L206.665 11.8029L208.071 8.55518C225.221 17.3082 261.52 36.7746 271.481 49.3298C282.472 63.2316 299.007 134.265 304.136 157.237L304.117 157.257Z" fill="white"/>
<path d="M73.3112 153.375C73.3112 153.375 64.6374 167.891 60.6966 168.901C58.9539 169.357 49.9831 168.049 39.1112 164.782C53.2506 150.563 62.0828 131.711 62.1224 111.63C69.8258 124.799 73.3112 153.356 73.3112 153.356V153.375Z" fill="#AFB4C4"/>
<path d="M0.0198364 142.9C2.9507 146.365 6.67369 149.454 10.8521 152.187C16.9911 132.067 23.1103 111.947 29.2492 91.8075C34.2198 75.5294 39.5073 58.6967 50.9337 46.1019C65.1919 30.398 86.7971 23.6848 103.828 11.1692C78.6184 25.4472 40.8935 35.9033 36.715 53.5083C31.5464 75.3511 0.0198364 142.9 0.0198364 142.9Z" fill="#FFC112"/>
<path d="M19.7438 157.257C20.5557 157.673 21.3875 158.049 22.1994 158.425C27.1304 136.365 43.864 64.4 54.4785 50.9933C61.9443 41.5472 85.8268 27.586 103.947 17.8032L117.017 11.4068L115.789 8.55518C98.6395 17.3082 62.3403 36.7746 52.3794 49.3298C41.3886 63.2316 24.853 134.265 19.724 157.237L19.7438 157.257Z" fill="white"/>
<path d="M217.438 9.6639C212.23 25.744 198.408 46.8146 161.93 46.8146C125.453 46.8146 111.63 25.7638 106.422 9.6639C111.452 6.65383 115.848 3.48532 119.274 0.0197754C119.274 0.0197754 140.107 12.2977 161.95 12.2977C183.793 12.2977 204.626 0.0197754 204.626 0.0197754C208.032 3.46552 212.448 6.65383 217.458 9.6639H217.438Z" fill="#05143B"/>
<path d="M204.606 0.0197754C204.606 0.0197754 183.793 12.2977 161.95 12.2977C140.107 12.2977 119.274 0.0197754 119.274 0.0197754C119.274 0.0197754 117.631 35.6654 161.95 35.6654C206.269 35.6654 204.626 0.0197754 204.626 0.0197754H204.606Z" fill="#363636"/>
<path d="M219.755 126.146C213.854 126.146 206.665 120.106 206.665 113.056V98.6589H232.845V113.056C232.845 120.106 225.657 126.146 219.755 126.146ZM208.012 100.006V113.036C208.012 119.254 214.567 124.779 219.755 124.779C224.944 124.779 231.499 119.254 231.499 113.036V100.006H208.012Z" fill="#FFC112"/>
<path d="M208.923 100.778V112.858C208.923 118.898 215.082 123.789 219.736 123.789C224.389 123.789 230.548 118.898 230.548 112.858V100.778H208.923Z" fill="#040F2E"/>
<path d="M226.33 110.878C226.33 114.521 223.379 117.472 219.736 117.472C216.092 117.472 213.141 114.521 213.141 110.878C213.141 107.234 216.092 104.283 219.736 104.283C223.379 104.283 226.33 107.234 226.33 110.878Z" fill="white"/>
<defs>
<linearGradient id="paint0_linear_29_312" x1="60.5976" y1="388.934" x2="261.936" y2="388.934" gradientUnits="userSpaceOnUse">
<stop stop-color="#086972" stop-opacity="0"/>
<stop offset="0.5" stop-color="#086972"/>
<stop offset="1" stop-color="#086972" stop-opacity="0"/>
</linearGradient>
<linearGradient id="paint1_linear_29_312" x1="60.5975" y1="386.2" x2="261.936" y2="386.2" gradientUnits="userSpaceOnUse">
<stop stop-color="#086972" stop-opacity="0"/>
<stop offset="0.5" stop-color="#086972"/>
<stop offset="1" stop-color="#086972" stop-opacity="0"/>
</linearGradient>
<linearGradient id="paint2_linear_29_312" x1="60.5975" y1="383.468" x2="261.936" y2="383.468" gradientUnits="userSpaceOnUse">
<stop stop-color="#086972" stop-opacity="0"/>
<stop offset="0.5" stop-color="#086972"/>
<stop offset="1" stop-color="#086972" stop-opacity="0"/>
</linearGradient>
<linearGradient id="paint3_linear_29_312" x1="60.5975" y1="380.735" x2="261.936" y2="380.735" gradientUnits="userSpaceOnUse">
<stop stop-color="#086972" stop-opacity="0"/>
<stop offset="0.5" stop-color="#086972"/>
<stop offset="1" stop-color="#086972" stop-opacity="0"/>
</linearGradient>
<linearGradient id="paint4_linear_29_312" x1="60.5976" y1="378.002" x2="261.936" y2="378.002" gradientUnits="userSpaceOnUse">
<stop stop-color="#086972" stop-opacity="0"/>
<stop offset="0.5" stop-color="#086972"/>
<stop offset="1" stop-color="#086972" stop-opacity="0"/>
</linearGradient>
<linearGradient id="paint5_linear_29_312" x1="60.5976" y1="375.27" x2="261.936" y2="375.27" gradientUnits="userSpaceOnUse">
<stop stop-color="#086972" stop-opacity="0"/>
<stop offset="0.5" stop-color="#086972"/>
<stop offset="1" stop-color="#086972" stop-opacity="0"/>
</linearGradient>
<linearGradient id="paint6_linear_29_312" x1="60.5976" y1="372.536" x2="261.936" y2="372.536" gradientUnits="userSpaceOnUse">
<stop stop-color="#086972" stop-opacity="0"/>
<stop offset="0.5" stop-color="#086972"/>
<stop offset="1" stop-color="#086972" stop-opacity="0"/>
</linearGradient>
<linearGradient id="paint7_linear_29_312" x1="60.5976" y1="369.804" x2="261.936" y2="369.804" gradientUnits="userSpaceOnUse">
<stop stop-color="#086972" stop-opacity="0"/>
<stop offset="0.5" stop-color="#086972"/>
<stop offset="1" stop-color="#086972" stop-opacity="0"/>
</linearGradient>
<linearGradient id="paint8_linear_29_312" x1="60.5976" y1="367.071" x2="261.936" y2="367.071" gradientUnits="userSpaceOnUse">
<stop stop-color="#086972" stop-opacity="0"/>
<stop offset="0.5" stop-color="#086972"/>
<stop offset="1" stop-color="#086972" stop-opacity="0"/>
</linearGradient>
<linearGradient id="paint9_linear_29_312" x1="60.5976" y1="364.338" x2="261.936" y2="364.338" gradientUnits="userSpaceOnUse">
<stop stop-color="#086972" stop-opacity="0"/>
<stop offset="0.5" stop-color="#086972"/>
<stop offset="1" stop-color="#086972" stop-opacity="0"/>
</linearGradient>
<linearGradient id="paint10_linear_29_312" x1="60.5975" y1="361.605" x2="261.936" y2="361.605" gradientUnits="userSpaceOnUse">
<stop stop-color="#086972" stop-opacity="0"/>
<stop offset="0.5" stop-color="#086972"/>
<stop offset="1" stop-color="#086972" stop-opacity="0"/>
</linearGradient>
<linearGradient id="paint11_linear_29_312" x1="60.5976" y1="358.873" x2="261.936" y2="358.873" gradientUnits="userSpaceOnUse">
<stop stop-color="#086972" stop-opacity="0"/>
<stop offset="0.5" stop-color="#086972"/>
<stop offset="1" stop-color="#086972" stop-opacity="0"/>
</linearGradient>
<linearGradient id="paint12_linear_29_312" x1="60.5975" y1="356.139" x2="261.936" y2="356.139" gradientUnits="userSpaceOnUse">
<stop stop-color="#086972" stop-opacity="0"/>
<stop offset="0.5" stop-color="#086972"/>
<stop offset="1" stop-color="#086972" stop-opacity="0"/>
</linearGradient>
<linearGradient id="paint13_linear_29_312" x1="60.5975" y1="353.387" x2="261.936" y2="353.387" gradientUnits="userSpaceOnUse">
<stop stop-color="#086972" stop-opacity="0"/>
<stop offset="0.5" stop-color="#086972"/>
<stop offset="1" stop-color="#086972" stop-opacity="0"/>
</linearGradient>
<linearGradient id="paint14_linear_29_312" x1="60.5975" y1="350.654" x2="261.936" y2="350.654" gradientUnits="userSpaceOnUse">
<stop stop-color="#086972" stop-opacity="0"/>
<stop offset="0.5" stop-color="#086972"/>
<stop offset="1" stop-color="#086972" stop-opacity="0"/>
</linearGradient>
<linearGradient id="paint15_linear_29_312" x1="60.5975" y1="347.921" x2="261.936" y2="347.921" gradientUnits="userSpaceOnUse">
<stop stop-color="#086972" stop-opacity="0"/>
<stop offset="0.5" stop-color="#086972"/>
<stop offset="1" stop-color="#086972" stop-opacity="0"/>
</linearGradient>
<linearGradient id="paint16_linear_29_312" x1="60.5975" y1="345.188" x2="261.936" y2="345.188" gradientUnits="userSpaceOnUse">
<stop stop-color="#086972" stop-opacity="0"/>
<stop offset="0.5" stop-color="#086972"/>
<stop offset="1" stop-color="#086972" stop-opacity="0"/>
</linearGradient>
<linearGradient id="paint17_linear_29_312" x1="60.5975" y1="342.456" x2="261.936" y2="342.456" gradientUnits="userSpaceOnUse">
<stop stop-color="#086972" stop-opacity="0"/>
<stop offset="0.5" stop-color="#086972"/>
<stop offset="1" stop-color="#086972" stop-opacity="0"/>
</linearGradient>
<linearGradient id="paint18_linear_29_312" x1="60.5975" y1="339.722" x2="261.936" y2="339.722" gradientUnits="userSpaceOnUse">
<stop stop-color="#086972" stop-opacity="0"/>
<stop offset="0.5" stop-color="#086972"/>
<stop offset="1" stop-color="#086972" stop-opacity="0"/>
</linearGradient>
<linearGradient id="paint19_linear_29_312" x1="60.5976" y1="336.99" x2="261.936" y2="336.99" gradientUnits="userSpaceOnUse">
<stop stop-color="#086972" stop-opacity="0"/>
<stop offset="0.5" stop-color="#086972"/>
<stop offset="1" stop-color="#086972" stop-opacity="0"/>
</linearGradient>
<linearGradient id="paint20_linear_29_312" x1="60.5976" y1="334.257" x2="261.936" y2="334.257" gradientUnits="userSpaceOnUse">
<stop stop-color="#086972" stop-opacity="0"/>
<stop offset="0.5" stop-color="#086972"/>
<stop offset="1" stop-color="#086972" stop-opacity="0"/>
</linearGradient>
<linearGradient id="paint21_linear_29_312" x1="60.5976" y1="331.524" x2="261.936" y2="331.524" gradientUnits="userSpaceOnUse">
<stop stop-color="#086972" stop-opacity="0"/>
<stop offset="0.5" stop-color="#086972"/>
<stop offset="1" stop-color="#086972" stop-opacity="0"/>
</linearGradient>
<linearGradient id="paint22_linear_29_312" x1="60.5976" y1="328.792" x2="261.936" y2="328.792" gradientUnits="userSpaceOnUse">
<stop stop-color="#086972" stop-opacity="0"/>
<stop offset="0.5" stop-color="#086972"/>
<stop offset="1" stop-color="#086972" stop-opacity="0"/>
</linearGradient>
<linearGradient id="paint23_linear_29_312" x1="60.5976" y1="326.059" x2="261.936" y2="326.059" gradientUnits="userSpaceOnUse">
<stop stop-color="#086972" stop-opacity="0"/>
<stop offset="0.5" stop-color="#086972"/>
<stop offset="1" stop-color="#086972" stop-opacity="0"/>
</linearGradient>
<linearGradient id="paint24_linear_29_312" x1="60.5976" y1="323.325" x2="261.936" y2="323.325" gradientUnits="userSpaceOnUse">
<stop stop-color="#086972" stop-opacity="0"/>
<stop offset="0.5" stop-color="#086972"/>
<stop offset="1" stop-color="#086972" stop-opacity="0"/>
</linearGradient>
<linearGradient id="paint25_linear_29_312" x1="60.5976" y1="320.593" x2="261.936" y2="320.593" gradientUnits="userSpaceOnUse">
<stop stop-color="#086972" stop-opacity="0"/>
<stop offset="0.5" stop-color="#086972"/>
<stop offset="1" stop-color="#086972" stop-opacity="0"/>
</linearGradient>
<linearGradient id="paint26_linear_29_312" x1="60.5975" y1="317.86" x2="261.936" y2="317.86" gradientUnits="userSpaceOnUse">
<stop stop-color="#086972" stop-opacity="0"/>
<stop offset="0.5" stop-color="#086972"/>
<stop offset="1" stop-color="#086972" stop-opacity="0"/>
</linearGradient>
<linearGradient id="paint27_linear_29_312" x1="60.5975" y1="315.107" x2="261.936" y2="315.107" gradientUnits="userSpaceOnUse">
<stop stop-color="#086972" stop-opacity="0"/>
<stop offset="0.5" stop-color="#086972"/>
<stop offset="1" stop-color="#086972" stop-opacity="0"/>
</linearGradient>
<linearGradient id="paint28_linear_29_312" x1="60.5975" y1="312.375" x2="261.936" y2="312.375" gradientUnits="userSpaceOnUse">
<stop stop-color="#086972" stop-opacity="0"/>
<stop offset="0.5" stop-color="#086972"/>
<stop offset="1" stop-color="#086972" stop-opacity="0"/>
</linearGradient>
<linearGradient id="paint29_linear_29_312" x1="60.5975" y1="309.642" x2="261.936" y2="309.642" gradientUnits="userSpaceOnUse">
<stop stop-color="#086972" stop-opacity="0"/>
<stop offset="0.5" stop-color="#086972"/>
<stop offset="1" stop-color="#086972" stop-opacity="0"/>
</linearGradient>
<linearGradient id="paint30_linear_29_312" x1="60.5976" y1="306.909" x2="261.936" y2="306.909" gradientUnits="userSpaceOnUse">
<stop stop-color="#086972" stop-opacity="0"/>
<stop offset="0.5" stop-color="#086972"/>
<stop offset="1" stop-color="#086972" stop-opacity="0"/>
</linearGradient>
<linearGradient id="paint31_linear_29_312" x1="60.5975" y1="304.176" x2="261.936" y2="304.176" gradientUnits="userSpaceOnUse">
<stop stop-color="#086972" stop-opacity="0"/>
<stop offset="0.5" stop-color="#086972"/>
<stop offset="1" stop-color="#086972" stop-opacity="0"/>
</linearGradient>
<linearGradient id="paint32_linear_29_312" x1="60.5976" y1="301.443" x2="261.936" y2="301.443" gradientUnits="userSpaceOnUse">
<stop stop-color="#086972" stop-opacity="0"/>
<stop offset="0.5" stop-color="#086972"/>
<stop offset="1" stop-color="#086972" stop-opacity="0"/>
</linearGradient>
<linearGradient id="paint33_linear_29_312" x1="60.5976" y1="298.71" x2="261.936" y2="298.71" gradientUnits="userSpaceOnUse">
<stop stop-color="#086972" stop-opacity="0"/>
<stop offset="0.5" stop-color="#086972"/>
<stop offset="1" stop-color="#086972" stop-opacity="0"/>
</linearGradient>
<linearGradient id="paint34_linear_29_312" x1="60.5976" y1="295.978" x2="261.936" y2="295.978" gradientUnits="userSpaceOnUse">
<stop stop-color="#086972" stop-opacity="0"/>
<stop offset="0.5" stop-color="#086972"/>
<stop offset="1" stop-color="#086972" stop-opacity="0"/>
</linearGradient>
<linearGradient id="paint35_linear_29_312" x1="60.5976" y1="293.245" x2="261.936" y2="293.245" gradientUnits="userSpaceOnUse">
<stop stop-color="#086972" stop-opacity="0"/>
<stop offset="0.5" stop-color="#086972"/>
<stop offset="1" stop-color="#086972" stop-opacity="0"/>
</linearGradient>
<linearGradient id="paint36_linear_29_312" x1="60.5976" y1="290.512" x2="261.936" y2="290.512" gradientUnits="userSpaceOnUse">
<stop stop-color="#086972" stop-opacity="0"/>
<stop offset="0.5" stop-color="#086972"/>
<stop offset="1" stop-color="#086972" stop-opacity="0"/>
</linearGradient>
<linearGradient id="paint37_linear_29_312" x1="60.5976" y1="287.779" x2="261.936" y2="287.779" gradientUnits="userSpaceOnUse">
<stop stop-color="#086972" stop-opacity="0"/>
<stop offset="0.5" stop-color="#086972"/>
<stop offset="1" stop-color="#086972" stop-opacity="0"/>
</linearGradient>
<linearGradient id="paint38_linear_29_312" x1="60.5975" y1="285.046" x2="261.936" y2="285.046" gradientUnits="userSpaceOnUse">
<stop stop-color="#086972" stop-opacity="0"/>
<stop offset="0.5" stop-color="#086972"/>
<stop offset="1" stop-color="#086972" stop-opacity="0"/>
</linearGradient>
<linearGradient id="paint39_linear_29_312" x1="60.5976" y1="282.313" x2="261.936" y2="282.313" gradientUnits="userSpaceOnUse">
<stop stop-color="#086972" stop-opacity="0"/>
<stop offset="0.5" stop-color="#086972"/>
<stop offset="1" stop-color="#086972" stop-opacity="0"/>
</linearGradient>
<linearGradient id="paint40_linear_29_312" x1="60.5975" y1="279.561" x2="261.936" y2="279.561" gradientUnits="userSpaceOnUse">
<stop stop-color="#086972" stop-opacity="0"/>
<stop offset="0.5" stop-color="#086972"/>
<stop offset="1" stop-color="#086972" stop-opacity="0"/>
</linearGradient>
<linearGradient id="paint41_linear_29_312" x1="60.5975" y1="276.828" x2="261.936" y2="276.828" gradientUnits="userSpaceOnUse">
<stop stop-color="#086972" stop-opacity="0"/>
<stop offset="0.5" stop-color="#086972"/>
<stop offset="1" stop-color="#086972" stop-opacity="0"/>
</linearGradient>
<linearGradient id="paint42_linear_29_312" x1="60.5975" y1="274.095" x2="261.936" y2="274.095" gradientUnits="userSpaceOnUse">
<stop stop-color="#086972" stop-opacity="0"/>
<stop offset="0.5" stop-color="#086972"/>
<stop offset="1" stop-color="#086972" stop-opacity="0"/>
</linearGradient>
<linearGradient id="paint43_linear_29_312" x1="60.5975" y1="271.362" x2="261.936" y2="271.362" gradientUnits="userSpaceOnUse">
<stop stop-color="#086972" stop-opacity="0"/>
<stop offset="0.5" stop-color="#086972"/>
<stop offset="1" stop-color="#086972" stop-opacity="0"/>
</linearGradient>
<linearGradient id="paint44_linear_29_312" x1="60.5975" y1="268.63" x2="261.936" y2="268.63" gradientUnits="userSpaceOnUse">
<stop stop-color="#086972" stop-opacity="0"/>
<stop offset="0.5" stop-color="#086972"/>
<stop offset="1" stop-color="#086972" stop-opacity="0"/>
</linearGradient>
<linearGradient id="paint45_linear_29_312" x1="60.5976" y1="265.897" x2="261.936" y2="265.897" gradientUnits="userSpaceOnUse">
<stop stop-color="#086972" stop-opacity="0"/>
<stop offset="0.5" stop-color="#086972"/>
<stop offset="1" stop-color="#086972" stop-opacity="0"/>
</linearGradient>
<linearGradient id="paint46_linear_29_312" x1="60.5975" y1="263.164" x2="261.936" y2="263.164" gradientUnits="userSpaceOnUse">
<stop stop-color="#086972" stop-opacity="0"/>
<stop offset="0.5" stop-color="#086972"/>
<stop offset="1" stop-color="#086972" stop-opacity="0"/>
</linearGradient>
<linearGradient id="paint47_linear_29_312" x1="60.5976" y1="260.431" x2="261.936" y2="260.431" gradientUnits="userSpaceOnUse">
<stop stop-color="#086972" stop-opacity="0"/>
<stop offset="0.5" stop-color="#086972"/>
<stop offset="1" stop-color="#086972" stop-opacity="0"/>
</linearGradient>
<linearGradient id="paint48_linear_29_312" x1="60.5976" y1="257.698" x2="261.936" y2="257.698" gradientUnits="userSpaceOnUse">
<stop stop-color="#086972" stop-opacity="0"/>
<stop offset="0.5" stop-color="#086972"/>
<stop offset="1" stop-color="#086972" stop-opacity="0"/>
</linearGradient>
<linearGradient id="paint49_linear_29_312" x1="60.5976" y1="254.966" x2="261.936" y2="254.966" gradientUnits="userSpaceOnUse">
<stop stop-color="#086972" stop-opacity="0"/>
<stop offset="0.5" stop-color="#086972"/>
<stop offset="1" stop-color="#086972" stop-opacity="0"/>
</linearGradient>
<linearGradient id="paint50_linear_29_312" x1="60.5975" y1="252.232" x2="261.936" y2="252.232" gradientUnits="userSpaceOnUse">
<stop stop-color="#086972" stop-opacity="0"/>
<stop offset="0.5" stop-color="#086972"/>
<stop offset="1" stop-color="#086972" stop-opacity="0"/>
</linearGradient>
<linearGradient id="paint51_linear_29_312" x1="60.5976" y1="249.5" x2="261.936" y2="249.5" gradientUnits="userSpaceOnUse">
<stop stop-color="#086972" stop-opacity="0"/>
<stop offset="0.5" stop-color="#086972"/>
<stop offset="1" stop-color="#086972" stop-opacity="0"/>
</linearGradient>
<linearGradient id="paint52_linear_29_312" x1="60.5975" y1="246.767" x2="261.936" y2="246.767" gradientUnits="userSpaceOnUse">
<stop stop-color="#086972" stop-opacity="0"/>
<stop offset="0.5" stop-color="#086972"/>
<stop offset="1" stop-color="#086972" stop-opacity="0"/>
</linearGradient>
<linearGradient id="paint53_linear_29_312" x1="60.5976" y1="244.034" x2="261.936" y2="244.034" gradientUnits="userSpaceOnUse">
<stop stop-color="#086972" stop-opacity="0"/>
<stop offset="0.5" stop-color="#086972"/>
<stop offset="1" stop-color="#086972" stop-opacity="0"/>
</linearGradient>
<linearGradient id="paint54_linear_29_312" x1="60.5976" y1="241.281" x2="261.936" y2="241.281" gradientUnits="userSpaceOnUse">
<stop stop-color="#086972" stop-opacity="0"/>
<stop offset="0.5" stop-color="#086972"/>
<stop offset="1" stop-color="#086972" stop-opacity="0"/>
</linearGradient>
<linearGradient id="paint55_linear_29_312" x1="60.5975" y1="238.549" x2="261.936" y2="238.549" gradientUnits="userSpaceOnUse">
<stop stop-color="#086972" stop-opacity="0"/>
<stop offset="0.5" stop-color="#086972"/>
<stop offset="1" stop-color="#086972" stop-opacity="0"/>
</linearGradient>
<linearGradient id="paint56_linear_29_312" x1="60.5975" y1="235.816" x2="261.936" y2="235.816" gradientUnits="userSpaceOnUse">
<stop stop-color="#086972" stop-opacity="0"/>
<stop offset="0.5" stop-color="#086972"/>
<stop offset="1" stop-color="#086972" stop-opacity="0"/>
</linearGradient>
<linearGradient id="paint57_linear_29_312" x1="60.5975" y1="233.083" x2="261.936" y2="233.083" gradientUnits="userSpaceOnUse">
<stop stop-color="#086972" stop-opacity="0"/>
<stop offset="0.5" stop-color="#086972"/>
<stop offset="1" stop-color="#086972" stop-opacity="0"/>
</linearGradient>
<linearGradient id="paint58_linear_29_312" x1="60.5975" y1="230.35" x2="261.936" y2="230.35" gradientUnits="userSpaceOnUse">
<stop stop-color="#086972" stop-opacity="0"/>
<stop offset="0.5" stop-color="#086972"/>
<stop offset="1" stop-color="#086972" stop-opacity="0"/>
</linearGradient>
<linearGradient id="paint59_linear_29_312" x1="60.5975" y1="227.617" x2="261.936" y2="227.617" gradientUnits="userSpaceOnUse">
<stop stop-color="#086972" stop-opacity="0"/>
<stop offset="0.5" stop-color="#086972"/>
<stop offset="1" stop-color="#086972" stop-opacity="0"/>
</linearGradient>
<linearGradient id="paint60_linear_29_312" x1="60.5976" y1="224.884" x2="261.936" y2="224.884" gradientUnits="userSpaceOnUse">
<stop stop-color="#086972" stop-opacity="0"/>
<stop offset="0.5" stop-color="#086972"/>
<stop offset="1" stop-color="#086972" stop-opacity="0"/>
</linearGradient>
<linearGradient id="paint61_linear_29_312" x1="60.5976" y1="222.152" x2="261.936" y2="222.152" gradientUnits="userSpaceOnUse">
<stop stop-color="#086972" stop-opacity="0"/>
<stop offset="0.5" stop-color="#086972"/>
<stop offset="1" stop-color="#086972" stop-opacity="0"/>
</linearGradient>
<linearGradient id="paint62_linear_29_312" x1="60.5976" y1="219.418" x2="261.936" y2="219.418" gradientUnits="userSpaceOnUse">
<stop stop-color="#086972" stop-opacity="0"/>
<stop offset="0.5" stop-color="#086972"/>
<stop offset="1" stop-color="#086972" stop-opacity="0"/>
</linearGradient>
<linearGradient id="paint63_linear_29_312" x1="60.5976" y1="216.686" x2="261.936" y2="216.686" gradientUnits="userSpaceOnUse">
<stop stop-color="#086972" stop-opacity="0"/>
<stop offset="0.5" stop-color="#086972"/>
<stop offset="1" stop-color="#086972" stop-opacity="0"/>
</linearGradient>
<linearGradient id="paint64_linear_29_312" x1="60.5976" y1="213.953" x2="261.936" y2="213.953" gradientUnits="userSpaceOnUse">
<stop stop-color="#086972" stop-opacity="0"/>
<stop offset="0.5" stop-color="#086972"/>
<stop offset="1" stop-color="#086972" stop-opacity="0"/>
</linearGradient>
<linearGradient id="paint65_linear_29_312" x1="60.5976" y1="211.22" x2="261.936" y2="211.22" gradientUnits="userSpaceOnUse">
<stop stop-color="#086972" stop-opacity="0"/>
<stop offset="0.5" stop-color="#086972"/>
<stop offset="1" stop-color="#086972" stop-opacity="0"/>
</linearGradient>
<linearGradient id="paint66_linear_29_312" x1="60.5975" y1="208.488" x2="261.936" y2="208.488" gradientUnits="userSpaceOnUse">
<stop stop-color="#086972" stop-opacity="0"/>
<stop offset="0.5" stop-color="#086972"/>
<stop offset="1" stop-color="#086972" stop-opacity="0"/>
</linearGradient>
<linearGradient id="paint67_linear_29_312" x1="60.5975" y1="205.755" x2="261.936" y2="205.755" gradientUnits="userSpaceOnUse">
<stop stop-color="#086972" stop-opacity="0"/>
<stop offset="0.5" stop-color="#086972"/>
<stop offset="1" stop-color="#086972" stop-opacity="0"/>
</linearGradient>
<linearGradient id="paint68_linear_29_312" x1="60.5975" y1="203.002" x2="261.936" y2="203.002" gradientUnits="userSpaceOnUse">
<stop stop-color="#086972" stop-opacity="0"/>
<stop offset="0.5" stop-color="#086972"/>
<stop offset="1" stop-color="#086972" stop-opacity="0"/>
</linearGradient>
<linearGradient id="paint69_linear_29_312" x1="60.5975" y1="200.269" x2="261.936" y2="200.269" gradientUnits="userSpaceOnUse">
<stop stop-color="#086972" stop-opacity="0"/>
<stop offset="0.5" stop-color="#086972"/>
<stop offset="1" stop-color="#086972" stop-opacity="0"/>
</linearGradient>
<linearGradient id="paint70_linear_29_312" x1="60.5975" y1="197.536" x2="261.936" y2="197.536" gradientUnits="userSpaceOnUse">
<stop stop-color="#086972" stop-opacity="0"/>
<stop offset="0.5" stop-color="#086972"/>
<stop offset="1" stop-color="#086972" stop-opacity="0"/>
</linearGradient>
<linearGradient id="paint71_linear_29_312" x1="60.5975" y1="194.803" x2="261.936" y2="194.803" gradientUnits="userSpaceOnUse">
<stop stop-color="#086972" stop-opacity="0"/>
<stop offset="0.5" stop-color="#086972"/>
<stop offset="1" stop-color="#086972" stop-opacity="0"/>
</linearGradient>
<linearGradient id="paint72_linear_29_312" x1="60.5975" y1="192.071" x2="261.936" y2="192.071" gradientUnits="userSpaceOnUse">
<stop stop-color="#086972" stop-opacity="0"/>
<stop offset="0.5" stop-color="#086972"/>
<stop offset="1" stop-color="#086972" stop-opacity="0"/>
</linearGradient>
<linearGradient id="paint73_linear_29_312" x1="60.5975" y1="189.338" x2="261.936" y2="189.338" gradientUnits="userSpaceOnUse">
<stop stop-color="#086972" stop-opacity="0"/>
<stop offset="0.5" stop-color="#086972"/>
<stop offset="1" stop-color="#086972" stop-opacity="0"/>
</linearGradient>
<linearGradient id="paint74_linear_29_312" x1="60.5976" y1="186.605" x2="261.936" y2="186.605" gradientUnits="userSpaceOnUse">
<stop stop-color="#086972" stop-opacity="0"/>
<stop offset="0.5" stop-color="#086972"/>
<stop offset="1" stop-color="#086972" stop-opacity="0"/>
</linearGradient>
<linearGradient id="paint75_linear_29_312" x1="60.5976" y1="183.872" x2="261.936" y2="183.872" gradientUnits="userSpaceOnUse">
<stop stop-color="#086972" stop-opacity="0"/>
<stop offset="0.5" stop-color="#086972"/>
<stop offset="1" stop-color="#086972" stop-opacity="0"/>
</linearGradient>
<linearGradient id="paint76_linear_29_312" x1="60.5976" y1="181.139" x2="261.936" y2="181.139" gradientUnits="userSpaceOnUse">
<stop stop-color="#086972" stop-opacity="0"/>
<stop offset="0.5" stop-color="#086972"/>
<stop offset="1" stop-color="#086972" stop-opacity="0"/>
</linearGradient>
<linearGradient id="paint77_linear_29_312" x1="60.5976" y1="178.406" x2="261.936" y2="178.406" gradientUnits="userSpaceOnUse">
<stop stop-color="#086972" stop-opacity="0"/>
<stop offset="0.5" stop-color="#086972"/>
<stop offset="1" stop-color="#086972" stop-opacity="0"/>
</linearGradient>
<linearGradient id="paint78_linear_29_312" x1="60.5976" y1="175.674" x2="261.936" y2="175.674" gradientUnits="userSpaceOnUse">
<stop stop-color="#086972" stop-opacity="0"/>
<stop offset="0.5" stop-color="#086972"/>
<stop offset="1" stop-color="#086972" stop-opacity="0"/>
</linearGradient>
<linearGradient id="paint79_linear_29_312" x1="60.5976" y1="172.941" x2="261.936" y2="172.941" gradientUnits="userSpaceOnUse">
<stop stop-color="#086972" stop-opacity="0"/>
<stop offset="0.5" stop-color="#086972"/>
<stop offset="1" stop-color="#086972" stop-opacity="0"/>
</linearGradient>
<linearGradient id="paint80_linear_29_312" x1="60.5975" y1="170.208" x2="261.936" y2="170.208" gradientUnits="userSpaceOnUse">
<stop stop-color="#086972" stop-opacity="0"/>
<stop offset="0.5" stop-color="#086972"/>
<stop offset="1" stop-color="#086972" stop-opacity="0"/>
</linearGradient>
<linearGradient id="paint81_linear_29_312" x1="60.5975" y1="167.455" x2="261.936" y2="167.455" gradientUnits="userSpaceOnUse">
<stop stop-color="#086972" stop-opacity="0"/>
<stop offset="0.5" stop-color="#086972"/>
<stop offset="1" stop-color="#086972" stop-opacity="0"/>
</linearGradient>
<linearGradient id="paint82_linear_29_312" x1="60.5975" y1="164.723" x2="261.936" y2="164.723" gradientUnits="userSpaceOnUse">
<stop stop-color="#086972" stop-opacity="0"/>
<stop offset="0.5" stop-color="#086972"/>
<stop offset="1" stop-color="#086972" stop-opacity="0"/>
</linearGradient>
<linearGradient id="paint83_linear_29_312" x1="60.5975" y1="161.989" x2="261.936" y2="161.989" gradientUnits="userSpaceOnUse">
<stop stop-color="#086972" stop-opacity="0"/>
<stop offset="0.5" stop-color="#086972"/>
<stop offset="1" stop-color="#086972" stop-opacity="0"/>
</linearGradient>
<linearGradient id="paint84_linear_29_312" x1="60.5975" y1="159.257" x2="261.936" y2="159.257" gradientUnits="userSpaceOnUse">
<stop stop-color="#086972" stop-opacity="0"/>
<stop offset="0.5" stop-color="#086972"/>
<stop offset="1" stop-color="#086972" stop-opacity="0"/>
</linearGradient>
<linearGradient id="paint85_linear_29_312" x1="60.5975" y1="156.524" x2="261.936" y2="156.524" gradientUnits="userSpaceOnUse">
<stop stop-color="#086972" stop-opacity="0"/>
<stop offset="0.5" stop-color="#086972"/>
<stop offset="1" stop-color="#086972" stop-opacity="0"/>
</linearGradient>
<linearGradient id="paint86_linear_29_312" x1="60.5976" y1="153.791" x2="261.936" y2="153.791" gradientUnits="userSpaceOnUse">
<stop stop-color="#086972" stop-opacity="0"/>
<stop offset="0.5" stop-color="#086972"/>
<stop offset="1" stop-color="#086972" stop-opacity="0"/>
</linearGradient>
<linearGradient id="paint87_linear_29_312" x1="60.5976" y1="151.058" x2="261.936" y2="151.058" gradientUnits="userSpaceOnUse">
<stop stop-color="#086972" stop-opacity="0"/>
<stop offset="0.5" stop-color="#086972"/>
<stop offset="1" stop-color="#086972" stop-opacity="0"/>
</linearGradient>
<linearGradient id="paint88_linear_29_312" x1="60.6966" y1="148.325" x2="262.035" y2="148.325" gradientUnits="userSpaceOnUse">
<stop stop-color="#086972" stop-opacity="0"/>
<stop offset="0.5" stop-color="#086972"/>
<stop offset="1" stop-color="#086972" stop-opacity="0"/>
</linearGradient>
<linearGradient id="paint89_linear_29_312" x1="60.5976" y1="145.593" x2="261.936" y2="145.593" gradientUnits="userSpaceOnUse">
<stop stop-color="#086972" stop-opacity="0"/>
<stop offset="0.5" stop-color="#086972"/>
<stop offset="1" stop-color="#086972" stop-opacity="0"/>
</linearGradient>
<linearGradient id="paint90_linear_29_312" x1="60.5976" y1="142.86" x2="261.936" y2="142.86" gradientUnits="userSpaceOnUse">
<stop stop-color="#086972" stop-opacity="0"/>
<stop offset="0.5" stop-color="#086972"/>
<stop offset="1" stop-color="#086972" stop-opacity="0"/>
</linearGradient>
<linearGradient id="paint91_linear_29_312" x1="60.5976" y1="140.127" x2="261.936" y2="140.127" gradientUnits="userSpaceOnUse">
<stop stop-color="#086972" stop-opacity="0"/>
<stop offset="0.5" stop-color="#086972"/>
<stop offset="1" stop-color="#086972" stop-opacity="0"/>
</linearGradient>
<linearGradient id="paint92_linear_29_312" x1="60.5975" y1="137.394" x2="261.936" y2="137.394" gradientUnits="userSpaceOnUse">
<stop stop-color="#086972" stop-opacity="0"/>
<stop offset="0.5" stop-color="#086972"/>
<stop offset="1" stop-color="#086972" stop-opacity="0"/>
</linearGradient>
<linearGradient id="paint93_linear_29_312" x1="60.5976" y1="134.662" x2="261.936" y2="134.662" gradientUnits="userSpaceOnUse">
<stop stop-color="#086972" stop-opacity="0"/>
<stop offset="0.5" stop-color="#086972"/>
<stop offset="1" stop-color="#086972" stop-opacity="0"/>
</linearGradient>
<linearGradient id="paint94_linear_29_312" x1="60.5975" y1="131.929" x2="261.936" y2="131.929" gradientUnits="userSpaceOnUse">
<stop stop-color="#086972" stop-opacity="0"/>
<stop offset="0.5" stop-color="#086972"/>
<stop offset="1" stop-color="#086972" stop-opacity="0"/>
</linearGradient>
<linearGradient id="paint95_linear_29_312" x1="60.5976" y1="129.176" x2="261.936" y2="129.176" gradientUnits="userSpaceOnUse">
<stop stop-color="#086972" stop-opacity="0"/>
<stop offset="0.5" stop-color="#086972"/>
<stop offset="1" stop-color="#086972" stop-opacity="0"/>
</linearGradient>
<linearGradient id="paint96_linear_29_312" x1="60.5976" y1="126.443" x2="261.936" y2="126.443" gradientUnits="userSpaceOnUse">
<stop stop-color="#086972" stop-opacity="0"/>
<stop offset="0.5" stop-color="#086972"/>
<stop offset="1" stop-color="#086972" stop-opacity="0"/>
</linearGradient>
<linearGradient id="paint97_linear_29_312" x1="60.5975" y1="123.71" x2="261.936" y2="123.71" gradientUnits="userSpaceOnUse">
<stop stop-color="#086972" stop-opacity="0"/>
<stop offset="0.5" stop-color="#086972"/>
<stop offset="1" stop-color="#086972" stop-opacity="0"/>
</linearGradient>
<linearGradient id="paint98_linear_29_312" x1="60.5975" y1="120.977" x2="261.936" y2="120.977" gradientUnits="userSpaceOnUse">
<stop stop-color="#086972" stop-opacity="0"/>
<stop offset="0.5" stop-color="#086972"/>
<stop offset="1" stop-color="#086972" stop-opacity="0"/>
</linearGradient>
<linearGradient id="paint99_linear_29_312" x1="60.5975" y1="118.245" x2="261.936" y2="118.245" gradientUnits="userSpaceOnUse">
<stop stop-color="#086972" stop-opacity="0"/>
<stop offset="0.5" stop-color="#086972"/>
<stop offset="1" stop-color="#086972" stop-opacity="0"/>
</linearGradient>
<linearGradient id="paint100_linear_29_312" x1="60.5975" y1="115.512" x2="261.936" y2="115.512" gradientUnits="userSpaceOnUse">
<stop stop-color="#086972" stop-opacity="0"/>
<stop offset="0.5" stop-color="#086972"/>
<stop offset="1" stop-color="#086972" stop-opacity="0"/>
</linearGradient>
<linearGradient id="paint101_linear_29_312" x1="60.5976" y1="112.779" x2="261.936" y2="112.779" gradientUnits="userSpaceOnUse">
<stop stop-color="#086972" stop-opacity="0"/>
<stop offset="0.5" stop-color="#086972"/>
<stop offset="1" stop-color="#086972" stop-opacity="0"/>
</linearGradient>
<linearGradient id="paint102_linear_29_312" x1="60.5976" y1="110.046" x2="261.936" y2="110.046" gradientUnits="userSpaceOnUse">
<stop stop-color="#086972" stop-opacity="0"/>
<stop offset="0.5" stop-color="#086972"/>
<stop offset="1" stop-color="#086972" stop-opacity="0"/>
</linearGradient>
<linearGradient id="paint103_linear_29_312" x1="60.5976" y1="107.313" x2="261.936" y2="107.313" gradientUnits="userSpaceOnUse">
<stop stop-color="#086972" stop-opacity="0"/>
<stop offset="0.5" stop-color="#086972"/>
<stop offset="1" stop-color="#086972" stop-opacity="0"/>
</linearGradient>
<linearGradient id="paint104_linear_29_312" x1="60.5976" y1="104.58" x2="261.936" y2="104.58" gradientUnits="userSpaceOnUse">
<stop stop-color="#086972" stop-opacity="0"/>
<stop offset="0.5" stop-color="#086972"/>
<stop offset="1" stop-color="#086972" stop-opacity="0"/>
</linearGradient>
<linearGradient id="paint105_linear_29_312" x1="60.5976" y1="101.848" x2="261.936" y2="101.848" gradientUnits="userSpaceOnUse">
<stop stop-color="#086972" stop-opacity="0"/>
<stop offset="0.5" stop-color="#086972"/>
<stop offset="1" stop-color="#086972" stop-opacity="0"/>
</linearGradient>
<linearGradient id="paint106_linear_29_312" x1="60.5975" y1="99.1145" x2="261.936" y2="99.1145" gradientUnits="userSpaceOnUse">
<stop stop-color="#086972" stop-opacity="0"/>
<stop offset="0.5" stop-color="#086972"/>
<stop offset="1" stop-color="#086972" stop-opacity="0"/>
</linearGradient>
<linearGradient id="paint107_linear_29_312" x1="60.5976" y1="96.3821" x2="261.936" y2="96.3821" gradientUnits="userSpaceOnUse">
<stop stop-color="#086972" stop-opacity="0"/>
<stop offset="0.5" stop-color="#086972"/>
<stop offset="1" stop-color="#086972" stop-opacity="0"/>
</linearGradient>
<linearGradient id="paint108_linear_29_312" x1="60.5976" y1="93.6494" x2="261.936" y2="93.6494" gradientUnits="userSpaceOnUse">
<stop stop-color="#086972" stop-opacity="0"/>
<stop offset="0.5" stop-color="#086972"/>
<stop offset="1" stop-color="#086972" stop-opacity="0"/>
</linearGradient>
<linearGradient id="paint109_linear_29_312" x1="60.5975" y1="90.8965" x2="261.936" y2="90.8965" gradientUnits="userSpaceOnUse">
<stop stop-color="#086972" stop-opacity="0"/>
<stop offset="0.5" stop-color="#086972"/>
<stop offset="1" stop-color="#086972" stop-opacity="0"/>
</linearGradient>
<linearGradient id="paint110_linear_29_312" x1="60.5975" y1="88.1638" x2="261.936" y2="88.1638" gradientUnits="userSpaceOnUse">
<stop stop-color="#086972" stop-opacity="0"/>
<stop offset="0.5" stop-color="#086972"/>
<stop offset="1" stop-color="#086972" stop-opacity="0"/>
</linearGradient>
<linearGradient id="paint111_linear_29_312" x1="60.5975" y1="85.4307" x2="261.936" y2="85.4307" gradientUnits="userSpaceOnUse">
<stop stop-color="#086972" stop-opacity="0"/>
<stop offset="0.5" stop-color="#086972"/>
<stop offset="1" stop-color="#086972" stop-opacity="0"/>
</linearGradient>
<linearGradient id="paint112_linear_29_312" x1="60.5975" y1="82.6982" x2="261.936" y2="82.6982" gradientUnits="userSpaceOnUse">
<stop stop-color="#086972" stop-opacity="0"/>
<stop offset="0.5" stop-color="#086972"/>
<stop offset="1" stop-color="#086972" stop-opacity="0"/>
</linearGradient>
<linearGradient id="paint113_linear_29_312" x1="60.5975" y1="79.9651" x2="261.936" y2="79.9651" gradientUnits="userSpaceOnUse">
<stop stop-color="#086972" stop-opacity="0"/>
<stop offset="0.5" stop-color="#086972"/>
<stop offset="1" stop-color="#086972" stop-opacity="0"/>
</linearGradient>
<linearGradient id="paint114_linear_29_312" x1="60.5976" y1="77.2324" x2="261.936" y2="77.2324" gradientUnits="userSpaceOnUse">
<stop stop-color="#086972" stop-opacity="0"/>
<stop offset="0.5" stop-color="#086972"/>
<stop offset="1" stop-color="#086972" stop-opacity="0"/>
</linearGradient>
<linearGradient id="paint115_linear_29_312" x1="60.5975" y1="74.4995" x2="261.936" y2="74.4995" gradientUnits="userSpaceOnUse">
<stop stop-color="#086972" stop-opacity="0"/>
<stop offset="0.5" stop-color="#086972"/>
<stop offset="1" stop-color="#086972" stop-opacity="0"/>
</linearGradient>
<linearGradient id="paint116_linear_29_312" x1="60.5976" y1="71.7668" x2="261.936" y2="71.7668" gradientUnits="userSpaceOnUse">
<stop stop-color="#086972" stop-opacity="0"/>
<stop offset="0.5" stop-color="#086972"/>
<stop offset="1" stop-color="#086972" stop-opacity="0"/>
</linearGradient>
<linearGradient id="paint117_linear_29_312" x1="60.5976" y1="69.0337" x2="261.936" y2="69.0337" gradientUnits="userSpaceOnUse">
<stop stop-color="#086972" stop-opacity="0"/>
<stop offset="0.5" stop-color="#086972"/>
<stop offset="1" stop-color="#086972" stop-opacity="0"/>
</linearGradient>
<linearGradient id="paint118_linear_29_312" x1="60.5976" y1="66.301" x2="261.936" y2="66.301" gradientUnits="userSpaceOnUse">
<stop stop-color="#086972" stop-opacity="0"/>
<stop offset="0.5" stop-color="#086972"/>
<stop offset="1" stop-color="#086972" stop-opacity="0"/>
</linearGradient>
<linearGradient id="paint119_linear_29_312" x1="60.5976" y1="63.5681" x2="261.936" y2="63.5681" gradientUnits="userSpaceOnUse">
<stop stop-color="#086972" stop-opacity="0"/>
<stop offset="0.5" stop-color="#086972"/>
<stop offset="1" stop-color="#086972" stop-opacity="0"/>
</linearGradient>
<linearGradient id="paint120_linear_29_312" x1="60.5975" y1="60.8354" x2="261.936" y2="60.8354" gradientUnits="userSpaceOnUse">
<stop stop-color="#086972" stop-opacity="0"/>
<stop offset="0.5" stop-color="#086972"/>
<stop offset="1" stop-color="#086972" stop-opacity="0"/>
</linearGradient>
<linearGradient id="paint121_linear_29_312" x1="60.5975" y1="58.1023" x2="261.936" y2="58.1023" gradientUnits="userSpaceOnUse">
<stop stop-color="#086972" stop-opacity="0"/>
<stop offset="0.5" stop-color="#086972"/>
<stop offset="1" stop-color="#086972" stop-opacity="0"/>
</linearGradient>
<linearGradient id="paint122_linear_29_312" x1="60.5975" y1="55.3498" x2="261.936" y2="55.3498" gradientUnits="userSpaceOnUse">
<stop stop-color="#086972" stop-opacity="0"/>
<stop offset="0.5" stop-color="#086972"/>
<stop offset="1" stop-color="#086972" stop-opacity="0"/>
</linearGradient>
<linearGradient id="paint123_linear_29_312" x1="60.5975" y1="52.6169" x2="261.936" y2="52.6169" gradientUnits="userSpaceOnUse">
<stop stop-color="#086972" stop-opacity="0"/>
<stop offset="0.5" stop-color="#086972"/>
<stop offset="1" stop-color="#086972" stop-opacity="0"/>
</linearGradient>
<linearGradient id="paint124_linear_29_312" x1="60.5976" y1="49.8843" x2="261.936" y2="49.8843" gradientUnits="userSpaceOnUse">
<stop stop-color="#086972" stop-opacity="0"/>
<stop offset="0.5" stop-color="#086972"/>
<stop offset="1" stop-color="#086972" stop-opacity="0"/>
</linearGradient>
<linearGradient id="paint125_linear_29_312" x1="60.5975" y1="47.1511" x2="261.936" y2="47.1511" gradientUnits="userSpaceOnUse">
<stop stop-color="#086972" stop-opacity="0"/>
<stop offset="0.5" stop-color="#086972"/>
<stop offset="1" stop-color="#086972" stop-opacity="0"/>
</linearGradient>
<linearGradient id="paint126_linear_29_312" x1="60.5975" y1="44.4187" x2="261.936" y2="44.4187" gradientUnits="userSpaceOnUse">
<stop stop-color="#086972" stop-opacity="0"/>
<stop offset="0.5" stop-color="#086972"/>
<stop offset="1" stop-color="#086972" stop-opacity="0"/>
</linearGradient>
<linearGradient id="paint127_linear_29_312" x1="60.5975" y1="41.6855" x2="261.936" y2="41.6855" gradientUnits="userSpaceOnUse">
<stop stop-color="#086972" stop-opacity="0"/>
<stop offset="0.5" stop-color="#086972"/>
<stop offset="1" stop-color="#086972" stop-opacity="0"/>
</linearGradient>
<linearGradient id="paint128_linear_29_312" x1="60.5976" y1="38.9529" x2="261.936" y2="38.9529" gradientUnits="userSpaceOnUse">
<stop stop-color="#086972" stop-opacity="0"/>
<stop offset="0.5" stop-color="#086972"/>
<stop offset="1" stop-color="#086972" stop-opacity="0"/>
</linearGradient>
<linearGradient id="paint129_linear_29_312" x1="60.5976" y1="36.2197" x2="261.936" y2="36.2197" gradientUnits="userSpaceOnUse">
<stop stop-color="#086972" stop-opacity="0"/>
<stop offset="0.5" stop-color="#086972"/>
<stop offset="1" stop-color="#086972" stop-opacity="0"/>
</linearGradient>
<linearGradient id="paint130_linear_29_312" x1="60.5976" y1="33.4873" x2="261.936" y2="33.4873" gradientUnits="userSpaceOnUse">
<stop stop-color="#086972" stop-opacity="0"/>
<stop offset="0.5" stop-color="#086972"/>
<stop offset="1" stop-color="#086972" stop-opacity="0"/>
</linearGradient>
</defs>
</svg>
