<svg width="293" height="319" viewBox="0 0 293 319" fill="none" xmlns="http://www.w3.org/2000/svg">
<path d="M39.8207 29.842L0 122.355C0 122.355 27.5634 139.346 62.0954 148.401H71.3351V29.842H39.8207Z" fill="url(#paint0_linear_25_2069)"/>
<path d="M252.737 29.842L292.558 122.355C292.558 122.355 264.994 139.346 230.462 148.401H221.223V29.842H252.737Z" fill="url(#paint1_linear_25_2069)"/>
<path d="M224.427 302.527L223.12 293.659L214.565 290.952L213.259 282.083L204.703 279.407L203.397 270.538L194.841 267.831L193.535 258.963L184.98 256.255L183.673 247.387L175.118 244.679L173.811 235.811L165.256 233.104L163.949 224.235L155.394 221.528L154.087 212.659L145.532 209.952L144.226 201.083L135.67 198.407L134.364 189.539L125.809 186.863L124.502 177.994L115.947 175.318L114.64 166.449L106.085 163.773L104.778 154.904L96.223 152.228L94.9164 143.36L86.3611 140.684L85.0545 131.815L76.4993 129.139L75.1926 120.27L66.6374 117.594L65.3308 108.726L60.9443 107.356C61.5043 110.593 61.9087 113.518 62.0954 115.883C62.0954 128.952 48.6248 301.781 48.6248 301.781C48.6248 301.781 91.1521 318.398 146.279 318.398C184.7 318.398 216.961 310.338 233.013 305.453V305.204L224.427 302.496V302.527Z" fill="url(#paint2_linear_25_2069)"/>
<path d="M230.462 115.914C231.987 94.007 252.737 29.8109 252.737 29.8109C252.737 29.8109 209.308 16.2124 199.508 12.4471C189.677 8.68188 180.251 0 146.279 0C112.307 0 102.881 8.68188 93.0498 12.4471C83.2191 16.2124 39.8207 29.8109 39.8207 29.8109C39.8207 29.8109 56.3089 80.7819 60.9754 107.388L65.3619 108.757L66.6686 117.625L75.2238 120.302L76.5304 129.17L85.0856 131.846L86.3923 140.715L94.9475 143.391L96.2541 152.26L104.809 154.936L106.116 163.804L114.671 166.48L115.978 175.349L124.533 178.025L125.84 186.894L134.395 189.57L135.702 198.438L144.257 201.115L145.563 209.983L154.119 212.69L155.425 221.559L163.98 224.266L165.287 233.135L173.842 235.842L175.149 244.711L183.704 247.418L185.011 256.286L193.566 258.994L194.873 267.862L203.428 270.57L204.734 279.438L213.29 282.114L214.596 290.983L223.152 293.69L224.458 302.559L233.013 305.266V305.515C240.013 303.399 243.964 301.874 243.964 301.874C243.964 301.874 230.494 129.015 230.494 115.976L230.462 115.914Z" fill="url(#paint3_linear_25_2069)"/>
<path d="M146.279 0C117.627 0 106.427 6.16133 97.7474 10.3622C105.027 30.9622 124.409 44.7474 146.279 44.7474C168.149 44.7474 187.531 30.9622 194.81 10.3622C186.131 6.16133 174.931 0 146.279 0Z" fill="url(#paint4_linear_25_2069)"/>
<path d="M146.279 0C123.351 0 111.622 3.95196 103.378 7.6861C109.414 25.61 126.337 38.5239 146.279 38.5239C166.22 38.5239 183.144 25.61 189.18 7.6861C180.935 3.95196 169.207 0 146.279 0Z" fill="url(#paint5_linear_25_2069)"/>
<defs>
<linearGradient id="paint0_linear_25_2069" x1="57.1801" y1="88.7481" x2="1.18069" y2="101.936" gradientUnits="userSpaceOnUse">
<stop stop-color="#730D1C"/>
<stop offset="0.41" stop-color="#8F1024"/>
<stop offset="1" stop-color="#BF1532"/>
</linearGradient>
<linearGradient id="paint1_linear_25_2069" x1="235.347" y1="88.7481" x2="291.346" y2="101.967" gradientUnits="userSpaceOnUse">
<stop stop-color="#730D1C"/>
<stop offset="0.41" stop-color="#8F1024"/>
<stop offset="1" stop-color="#BF1532"/>
</linearGradient>
<linearGradient id="paint2_linear_25_2069" x1="34.1897" y1="212.908" x2="258.306" y2="212.908" gradientUnits="userSpaceOnUse">
<stop stop-color="#C7CDD8"/>
<stop offset="0.53" stop-color="white"/>
<stop offset="0.66" stop-color="#F3F4F7"/>
<stop offset="0.9" stop-color="#D5D9E2"/>
<stop offset="1" stop-color="#C7CDD8"/>
</linearGradient>
<linearGradient id="paint3_linear_25_2069" x1="34.1898" y1="152.726" x2="258.306" y2="152.726" gradientUnits="userSpaceOnUse">
<stop stop-color="#730D1C"/>
<stop offset="0.06" stop-color="#7D0E1F"/>
<stop offset="0.26" stop-color="#A11129"/>
<stop offset="0.42" stop-color="#B7142F"/>
<stop offset="0.53" stop-color="#BF1532"/>
<stop offset="0.63" stop-color="#B3132E"/>
<stop offset="0.82" stop-color="#951025"/>
<stop offset="1" stop-color="#730D1C"/>
</linearGradient>
<linearGradient id="paint4_linear_25_2069" x1="95.8186" y1="22.3737" x2="191.077" y2="22.3737" gradientUnits="userSpaceOnUse">
<stop stop-color="#C7CDD8"/>
<stop offset="0.53" stop-color="white"/>
<stop offset="0.66" stop-color="#F3F4F7"/>
<stop offset="0.9" stop-color="#D5D9E2"/>
<stop offset="1" stop-color="#C7CDD8"/>
</linearGradient>
<linearGradient id="paint5_linear_25_2069" x1="146.279" y1="38.6795" x2="146.279" y2="-10.6734" gradientUnits="userSpaceOnUse">
<stop stop-color="#C7CDD8"/>
<stop offset="0.54" stop-color="#E3E6EB"/>
<stop offset="1" stop-color="white"/>
</linearGradient>
</defs>
</svg>
