<svg width="293" height="319" viewBox="0 0 293 319" fill="none" xmlns="http://www.w3.org/2000/svg">
<path d="M39.8207 29.842L0 122.355C0 122.355 27.5634 139.346 62.0954 148.401H71.3351V29.842H39.8207Z" fill="url(#paint0_linear_25_2165)"/>
<path d="M71.3351 84.2981V79.4126C59.9799 92.6066 49.1848 110.717 43.8961 142.737C44.8605 143.08 45.8871 143.422 46.8826 143.764C51.6425 114.42 61.0999 96.963 71.3351 84.267V84.2981Z" fill="url(#paint1_linear_25_2165)"/>
<path d="M71.3351 58.626C55.3445 73.6248 38.763 93.9447 32.9143 138.537C33.8787 138.941 34.9053 139.315 35.9008 139.719C41.2829 97.5544 56.3401 77.4212 71.3351 62.9203V58.626Z" fill="url(#paint2_linear_25_2165)"/>
<path d="M252.737 29.842L292.558 122.355C292.558 122.355 264.994 139.346 230.462 148.401H221.223V29.842H252.737Z" fill="url(#paint3_linear_25_2165)"/>
<path d="M248.662 142.737C243.373 110.717 232.578 92.6066 221.223 79.4126V84.2981C231.458 96.9942 240.915 114.451 245.675 143.795C246.671 143.453 247.697 143.111 248.662 142.769V142.737Z" fill="url(#paint4_linear_25_2165)"/>
<path d="M221.223 58.626V62.9203C236.218 77.4523 251.275 97.5544 256.657 139.719C257.653 139.315 258.679 138.941 259.644 138.537C253.795 93.9136 237.213 73.5937 221.223 58.626Z" fill="url(#paint5_linear_25_2165)"/>
<path d="M230.462 115.914C231.987 94.007 252.737 29.8109 252.737 29.8109C252.737 29.8109 209.308 16.2124 199.508 12.4471C189.677 8.68188 180.251 0 146.279 0C112.307 0 102.849 8.68188 93.0498 12.4471C83.2191 16.2124 39.8207 29.8109 39.8207 29.8109C39.8207 29.8109 60.571 94.007 62.0954 115.914C62.0954 128.983 48.6248 301.812 48.6248 301.812C48.6248 301.812 91.1521 318.429 146.279 318.429C201.406 318.429 243.933 301.812 243.933 301.812C243.933 301.812 230.462 128.952 230.462 115.914Z" fill="url(#paint6_linear_25_2165)"/>
<path d="M243.964 301.843C243.964 301.843 230.494 128.984 230.494 115.945C230.774 111.931 231.707 106.485 233.014 100.293C226.512 88.1259 218.05 78.4171 210.801 71.1666C208.343 68.7083 205.481 66.1256 202.401 63.4495H200.473C210.801 72.8159 217.645 103.747 217.645 133.309V309.716C234.071 305.702 243.964 301.843 243.964 301.843Z" fill="url(#paint7_linear_25_2165)"/>
<path d="M81.757 71.1354C74.5083 78.3858 66.0464 88.1258 59.5445 100.262C60.8822 106.454 61.7843 111.9 62.0643 115.914C62.0643 128.983 48.5938 301.812 48.5938 301.812C48.5938 301.812 58.5178 305.67 74.9127 309.685V133.278C74.9127 103.716 81.757 72.7847 92.0855 63.4182H90.1566C87.0767 66.0632 84.2146 68.6771 81.757 71.1354Z" fill="url(#paint8_linear_25_2165)"/>
<path d="M212.979 70.6065C194.406 52.0291 154.025 25.5478 153.621 25.2677L153.248 25.0188H139.373L138.999 25.2677C138.595 25.5478 98.2141 52.0291 79.6415 70.6065C72.5795 77.6702 65.2687 85.792 58.9222 97.15C59.2956 98.7681 59.6377 100.355 59.9488 101.88C66.513 89.1215 74.3216 80.3463 81.8503 72.8158C99.2096 55.452 136.137 30.9001 140.337 28.1617H152.376C156.545 30.9312 193.473 55.452 210.863 72.8158C218.392 80.3463 226.169 89.0904 232.765 101.88C233.076 100.355 233.418 98.7681 233.791 97.15C227.445 85.8231 220.134 77.6702 213.072 70.6065H212.979Z" fill="url(#paint9_linear_25_2165)"/>
<path d="M219.076 56.6345C198.792 38.0883 154.616 11.607 154.181 11.3269L153.808 11.1091H138.781L138.408 11.3269C137.973 11.5759 93.7965 38.0571 73.5128 56.6345C66.9797 62.6091 60.2599 69.3305 54.1624 78.1369C54.5357 79.4749 54.8779 80.813 55.2201 82.1511C61.5977 72.4423 68.6907 65.2541 75.5971 58.9372C94.6986 41.4801 135.328 16.8037 139.621 14.2209H152.936C157.23 16.8037 197.89 41.4801 216.961 58.9372C223.867 65.2541 230.991 72.4423 237.338 82.1511C237.68 80.813 238.053 79.4749 238.395 78.1369C232.267 69.3616 225.547 62.6091 219.045 56.6345H219.076Z" fill="url(#paint10_linear_25_2165)"/>
<path d="M146.279 0C117.627 0 106.427 6.16134 97.7473 10.3622C105.027 30.9622 124.409 44.7475 146.279 44.7475C168.149 44.7475 187.531 30.9622 194.81 10.3622C186.131 6.16134 174.931 0 146.279 0Z" fill="url(#paint11_linear_25_2165)"/>
<path d="M146.279 0C123.351 0 111.622 3.95197 103.378 7.68611C109.414 25.61 126.337 38.5239 146.279 38.5239C166.22 38.5239 183.144 25.61 189.18 7.68611C180.935 3.95197 169.207 0 146.279 0Z" fill="url(#paint12_linear_25_2165)"/>
<defs>
<linearGradient id="paint0_linear_25_2165" x1="57.1801" y1="88.7481" x2="1.18068" y2="101.936" gradientUnits="userSpaceOnUse">
<stop stop-color="#09255C"/>
<stop offset="0.45" stop-color="#0B3078"/>
<stop offset="1" stop-color="#1041A2"/>
</linearGradient>
<linearGradient id="paint1_linear_25_2165" x1="62.9976" y1="94.3492" x2="45.5993" y2="142.859" gradientUnits="userSpaceOnUse">
<stop stop-color="#920F0E"/>
<stop offset="0.41" stop-color="#AE1010"/>
<stop offset="1" stop-color="#DE1414"/>
</linearGradient>
<linearGradient id="paint2_linear_25_2165" x1="53.478" y1="90.9574" x2="36.0797" y2="139.436" gradientUnits="userSpaceOnUse">
<stop stop-color="#C7CDD8"/>
<stop offset="0.54" stop-color="#E3E6EB"/>
<stop offset="1" stop-color="white"/>
</linearGradient>
<linearGradient id="paint3_linear_25_2165" x1="235.347" y1="88.7481" x2="291.346" y2="101.967" gradientUnits="userSpaceOnUse">
<stop stop-color="#09255C"/>
<stop offset="0.45" stop-color="#0B3078"/>
<stop offset="1" stop-color="#1041A2"/>
</linearGradient>
<linearGradient id="paint4_linear_25_2165" x1="230.494" y1="103.747" x2="254.613" y2="147.556" gradientUnits="userSpaceOnUse">
<stop stop-color="#920F0E"/>
<stop offset="0.41" stop-color="#AE1010"/>
<stop offset="1" stop-color="#DE1414"/>
</linearGradient>
<linearGradient id="paint5_linear_25_2165" x1="241.631" y1="97.6166" x2="265.75" y2="141.425" gradientUnits="userSpaceOnUse">
<stop stop-color="#C7CDD8"/>
<stop offset="0.54" stop-color="#E3E6EB"/>
<stop offset="1" stop-color="white"/>
</linearGradient>
<linearGradient id="paint6_linear_25_2165" x1="34.1898" y1="159.23" x2="258.306" y2="159.23" gradientUnits="userSpaceOnUse">
<stop stop-color="#09255C"/>
<stop offset="0.03" stop-color="#092660"/>
<stop offset="0.24" stop-color="#0D3584"/>
<stop offset="0.41" stop-color="#0F3D9A"/>
<stop offset="0.53" stop-color="#1041A2"/>
<stop offset="0.64" stop-color="#0E3C96"/>
<stop offset="0.84" stop-color="#0B3078"/>
<stop offset="1" stop-color="#09255C"/>
</linearGradient>
<linearGradient id="paint7_linear_25_2165" x1="222.218" y1="67.4325" x2="222.218" y2="358.478" gradientUnits="userSpaceOnUse">
<stop stop-color="#C7CDD8"/>
<stop offset="0.54" stop-color="#E3E6EB"/>
<stop offset="1" stop-color="white"/>
</linearGradient>
<linearGradient id="paint8_linear_25_2165" x1="70.3396" y1="67.4324" x2="70.3396" y2="358.477" gradientUnits="userSpaceOnUse">
<stop stop-color="#C7CDD8"/>
<stop offset="0.54" stop-color="#E3E6EB"/>
<stop offset="1" stop-color="white"/>
</linearGradient>
<linearGradient id="paint9_linear_25_2165" x1="70.8685" y1="63.4493" x2="211.392" y2="63.4493" gradientUnits="userSpaceOnUse">
<stop stop-color="#920F0E"/>
<stop offset="0.06" stop-color="#9C0F0E"/>
<stop offset="0.26" stop-color="#C01211"/>
<stop offset="0.42" stop-color="#D61313"/>
<stop offset="0.53" stop-color="#DE1414"/>
<stop offset="0.63" stop-color="#D21313"/>
<stop offset="0.82" stop-color="#B41110"/>
<stop offset="1" stop-color="#920F0E"/>
</linearGradient>
<linearGradient id="paint10_linear_25_2165" x1="70.8684" y1="46.6146" x2="211.392" y2="46.6146" gradientUnits="userSpaceOnUse">
<stop stop-color="#C7CDD8"/>
<stop offset="0.53" stop-color="white"/>
<stop offset="0.66" stop-color="#F3F4F7"/>
<stop offset="0.9" stop-color="#D5D9E2"/>
<stop offset="1" stop-color="#C7CDD8"/>
</linearGradient>
<linearGradient id="paint11_linear_25_2165" x1="57.9888" y1="22.3737" x2="234.787" y2="22.3737" gradientUnits="userSpaceOnUse">
<stop stop-color="#C7CDD8"/>
<stop offset="0.53" stop-color="white"/>
<stop offset="0.66" stop-color="#F3F4F7"/>
<stop offset="0.9" stop-color="#D5D9E2"/>
<stop offset="1" stop-color="#C7CDD8"/>
</linearGradient>
<linearGradient id="paint12_linear_25_2165" x1="146.279" y1="38.6795" x2="146.279" y2="-10.6734" gradientUnits="userSpaceOnUse">
<stop stop-color="#C7CDD8"/>
<stop offset="0.54" stop-color="#E3E6EB"/>
<stop offset="1" stop-color="white"/>
</linearGradient>
</defs>
</svg>
