<svg xmlns="http://www.w3.org/2000/svg" viewBox="0 0 120 120" fill="none">
  <!-- Head -->
  <circle cx="60" cy="32" r="20" fill="#FF9600"/>
  <!-- Headband -->
  <rect x="40" y="22" rx="2" width="40" height="5" fill="#CC7800"/>
  <!-- Eyes (determined) -->
  <rect x="49" y="28" rx="1" width="7" height="5" fill="white"/>
  <rect x="64" y="28" rx="1" width="7" height="5" fill="white"/>
  <circle cx="53" cy="30.5" r="1.5" fill="#131F24"/>
  <circle cx="68" cy="30.5" r="1.5" fill="#131F24"/>
  <!-- Serious mouth -->
  <rect x="51" y="39" rx="1" width="18" height="3" fill="white"/>
  <!-- Jersey area -->
  <rect x="35" y="52" rx="12" ry="12" width="50" height="42" fill="#FF9600"/>
  <!-- Captain armband -->
  <rect x="78" y="62" rx="3" width="22" height="6" fill="#FFD700"/>
  <!-- Arms -->
  <rect x="22" y="56" rx="8" ry="8" width="16" height="28" fill="#FF9600"/>
  <rect x="82" y="56" rx="8" ry="8" width="16" height="28" fill="#FF9600"/>
  <!-- Shorts -->
  <rect x="38" y="90" rx="6" ry="6" width="20" height="18" fill="#131F24"/>
  <rect x="62" y="90" rx="6" ry="6" width="20" height="18" fill="#131F24"/>
  <!-- Number + C -->
  <text x="60" y="78" text-anchor="middle" font-family="Arial Black" font-size="16" font-weight="900" fill="white">C</text>
</svg>
