<svg width="63" height="65" viewBox="0 0 63 65" fill="none" xmlns="http://www.w3.org/2000/svg">
<g clip-path="url(#clip0_1502_554)">
<path d="M26.1513 20.2185L23.899 21.4549L29.8609 32.3154L11.545 42.37L5.46801 31.3L17.8836 24.4844C17.8686 24.4498 17.8533 24.4153 17.8383 24.3808C16.2501 24.8845 14.6743 25.4353 13.0702 25.8797C11.3131 26.3666 9.52245 26.6522 7.69945 26.3542C4.10638 25.7667 2.69517 22.2734 5.00266 19.433C5.78031 18.4756 6.84173 17.6683 7.91639 17.0335C10.2219 15.672 12.7739 15.0207 15.439 14.9211C18.34 14.8129 20.9792 15.4883 23.0964 17.5408C23.1695 17.4437 23.2356 17.3938 23.229 17.359C22.6938 14.5913 23.4456 12.0835 25.0275 9.79094C27.1223 6.75556 29.8019 4.41652 33.4366 3.37327C35.9286 2.65815 38.0393 3.47608 38.9855 5.42287C39.5841 6.65442 39.495 7.90332 38.9672 9.14706C38.0204 11.3776 36.291 12.9868 34.4918 14.5281C33.6266 15.2691 32.7109 15.9522 31.8887 16.7664L44.3279 9.93786L50.412 21.0209L32.1076 31.0692L26.151 20.2184L26.1513 20.2185ZM20.0541 19.6641C20.076 19.5726 20.0979 19.481 20.1198 19.3895C19.5368 19.1265 18.9803 18.7591 18.3667 18.6171C14.6923 17.7676 11.334 18.5846 8.27389 20.7966C8.05629 20.9539 7.8685 21.1624 7.69782 21.3715C7.0345 22.1827 7.24777 22.848 8.28245 23.0563C8.77267 23.1551 9.30275 23.1619 9.80488 23.1059C13.4656 22.6979 16.7613 21.1817 20.0544 19.6642L20.0541 19.6641ZM26.4319 16.1849C29.527 14.2162 32.3504 12.3456 34.6251 9.79153C35.1187 9.23723 35.5539 8.58902 35.8468 7.91495C36.2706 6.93996 35.7963 6.39897 34.7492 6.52338C34.5402 6.54831 34.3237 6.57622 34.1286 6.6508C30.3984 8.07263 27.7944 10.5768 26.6035 14.3963C26.4482 14.8947 26.4959 15.4519 26.4319 16.1849Z" fill="#FF6C0A"/>
<path d="M31.0933 34.7318L42.0884 54.7609L26.1045 63.5354L15.1094 43.5063L31.0935 34.7317L31.0933 34.7318Z" fill="#FF6C0A"/>
<path d="M60.4501 44.6929L44.4868 53.4561L33.4805 33.4067L49.4438 24.6435L60.4501 44.6929Z" fill="#FF6C0A"/>
</g>
<defs>
<clipPath id="clip0_1502_554">
<rect width="44.3444" height="49.5614" fill="white" transform="translate(0 21.3393) rotate(-28.7649)"/>
</clipPath>
</defs>
</svg>
