<svg width="61" height="60" viewBox="0 0 61 60" fill="none" xmlns="http://www.w3.org/2000/svg">
<path d="M21.4468 59.5532C21.1879 59.0681 20.9759 58.6708 20.7637 58.2732C17.0355 51.2903 13.2855 44.3186 9.6042 37.3112C9.08047 36.3141 8.61578 36.1924 7.76236 36.8082C7.36854 37.0923 6.90433 37.2788 6.40361 37.5461L-0.000558534 25.5473L9.10258 20.6886C8.15411 19.5862 7.05036 18.6572 6.39817 17.4785C4.524 14.0909 7.02721 9.80187 10.5029 9.57593C13.5879 9.37547 16.5641 9.73212 19.4695 10.7557C19.7633 10.8592 20.0536 10.9725 20.1185 10.9966C21.1595 8.62914 22.1393 6.30273 23.2112 4.01966C23.55 3.2979 24.0894 2.65242 24.6149 2.0385C26.2851 0.0883524 28.4189 -0.469159 30.7019 0.392953C32.8814 1.2159 34.3819 3.38064 34.3907 5.72254C34.3924 6.13941 34.3719 6.55632 34.3573 7.13986L43.8197 2.08944L50.2464 14.1305L47.7137 15.4823L60.1968 38.8705L21.4466 59.5528L21.4468 59.5532ZM34.1051 50.3166C33.993 50.0487 33.9286 49.8505 33.8321 49.6696C30.2791 43.0038 26.7162 36.3431 23.1781 29.6694C22.8253 29.0042 22.4853 28.9602 21.8531 29.3035C18.4702 31.1411 15.0654 32.9384 11.6713 34.7556C11.4321 34.8835 11.2186 35.059 10.9712 35.2274L22.3685 56.5812L34.1055 50.3167L34.1051 50.3166ZM57.1894 38L45.7806 16.6245C45.4156 16.7903 45.0925 16.917 44.7879 17.079C41.479 18.8397 38.1859 20.6305 34.8571 22.3524C34.0778 22.7554 34.0608 23.1221 34.4381 23.8237C37.936 30.3283 41.4054 36.848 44.8866 43.3615C45.0468 43.6614 45.2402 43.9433 45.4409 44.2708L57.1897 38.0001L57.1894 38ZM43.414 45.3538C43.3508 45.1278 43.3401 45.0193 43.2927 44.9305C37.8752 34.7719 32.4521 24.6164 27.0434 14.4533C26.7418 13.8865 26.4418 13.7953 25.8792 14.1051C23.991 15.1444 22.1028 16.189 20.1682 17.1372C19.2891 17.5682 19.2985 17.9711 19.7194 18.7555C25.0145 28.619 30.2771 38.5001 35.5508 48.375C35.7101 48.6734 35.8983 48.9564 36.0845 49.2658L43.4138 45.3539L43.414 45.3538ZM7.31117 34.6642C7.51844 34.6266 7.59493 34.6308 7.65273 34.6C12.1457 32.2137 16.6327 29.8163 21.1334 27.445C21.7963 27.0957 21.6021 26.7203 21.3472 26.2469C20.158 24.04 18.9488 21.8429 17.82 19.6053C17.4246 18.8212 17.0594 18.8142 16.3537 19.1971C12.1918 21.4536 8.00662 23.6671 3.83117 25.8988C3.53078 26.0591 3.24662 26.2498 2.92429 26.4449L7.31117 34.6642ZM47.3682 13.3634L42.968 5.11918C42.7732 5.18068 42.6333 5.20253 42.5149 5.26542C38.0863 7.62153 33.664 9.98946 29.2283 12.3317C28.6208 12.6525 28.6517 12.9855 28.9377 13.5103C30.1376 15.711 31.3426 17.9101 32.4705 20.1478C32.8826 20.9652 33.2665 20.9855 34.0122 20.5802C38.1397 18.3356 42.2932 16.1392 46.4359 13.9225C46.7392 13.7603 47.027 13.5691 47.3682 13.3634ZM27.3444 10.7327C28.4343 10.151 29.5242 9.56932 30.6141 8.98761C31.972 8.26287 32.4153 7.0558 32.3114 5.61732C32.1988 4.05667 31.085 2.69616 29.5979 2.31112C28.2102 1.95171 26.9422 2.28188 26.1194 3.47584C25.2641 4.71729 24.4648 6.02636 23.8574 7.40141C23.2789 8.71098 22.9427 10.1344 22.5835 11.5291C22.4912 11.887 22.5876 12.4861 22.8315 12.679C23.0424 12.8459 23.6273 12.6804 23.9737 12.5116C25.1151 11.9552 26.2235 11.3307 27.3445 10.7324L27.3444 10.7327ZM16.3092 16.6238C17.4006 16.0412 18.5076 15.4858 19.5744 14.8613C19.9392 14.6478 20.2027 14.2609 20.5126 13.9532C20.19 13.6514 19.9182 13.2339 19.5367 13.0662C16.7723 11.8504 13.86 11.3694 10.8538 11.5764C9.46316 11.672 8.37157 12.648 8.05587 13.9497C7.6834 15.485 8.03263 16.8487 9.28844 17.8565C10.4093 18.7559 11.6671 19.0854 13.0333 18.3683C14.1284 17.7933 15.2167 17.2049 16.309 16.6241L16.3092 16.6238Z" fill="#FF6C0A"/>
</svg>
